<?xml version="1.0" encoding="utf-8"?>
<!-- Generator: Adobe Adobe Illustrator 24.2.0, SVG Export Plug-In . SVG Version: 6.00 Build 0)  -->
<svg version="1.1" id="레이어_1" xmlns="http://www.w3.org/2000/svg" xmlns:xlink="http://www.w3.org/1999/xlink" x="0px"
	 y="0px" width="944.3px" height="1058.6px" viewBox="0 0 944.3 1058.6" style="enable-background:new 0 0 944.3 1058.6;"
	 xml:space="preserve">
<style type="text/css">
	.st0{fill:#026BAC;}
	.st1{fill-rule:evenodd;clip-rule:evenodd;fill:#03456E;}
	.st2{fill-rule:evenodd;clip-rule:evenodd;fill:#026BAB;}
	.st3{fill:#F0F8FB;}
	.st4{fill:#E97607;}
	.st5{fill:#000004;}
	.st6{fill:#FBC00B;}
	.st7{fill:#775934;}
	.st8{fill-rule:evenodd;clip-rule:evenodd;fill:#E97607;}
	.st9{fill-rule:evenodd;clip-rule:evenodd;fill:#F9F185;}
	.st10{fill-rule:evenodd;clip-rule:evenodd;fill:#FBBF08;}
	.st11{fill-rule:evenodd;clip-rule:evenodd;fill:#B8580F;}
	.st12{fill-rule:evenodd;clip-rule:evenodd;fill:#D66101;}
	.st13{fill-rule:evenodd;clip-rule:evenodd;fill:#FDE635;}
	.st14{fill-rule:evenodd;clip-rule:evenodd;}
	.st15{fill-rule:evenodd;clip-rule:evenodd;fill:#036CAD;}
	.st16{fill-rule:evenodd;clip-rule:evenodd;fill:#F4F4E5;}
	.st17{fill-rule:evenodd;clip-rule:evenodd;fill:#EA7708;}
	.st18{fill-rule:evenodd;clip-rule:evenodd;fill:#F1F2DE;}
	.st19{fill-rule:evenodd;clip-rule:evenodd;fill:#106EAD;}
	.st20{fill-rule:evenodd;clip-rule:evenodd;fill:#FDF160;}
	.st21{fill-rule:evenodd;clip-rule:evenodd;fill:#FBE536;}
	.st22{fill:none;stroke:#000000;stroke-miterlimit:10;}
</style>
<g id="illustration_1_">
	<path class="st0" d="M495.2,330.3c22-1.8,54.8-48.4,56.1-68c3.2-46.5-17.7-96.4-100.8-96.4c-92.5,0-103.5,53.6-103.5,100.2
		c0,21.7,30.1,51.2,38.8,53.3c29.2,6.7,16.3,9.7,12.2,10.3c-2.3,0.3-9,3.4-9.6,5.6c-5.3,20.4-28.2,117-26.9,130.7
		c2.1,22.2,15.9,43.4,37.1,48.5c9.8,2.4,19.5-3.1,32.4-2.6c3.4,0.1,21.2-0.3,21.2-0.3s32.4,4.7,34.4,5.5c30,1.1,45.7-35.2,49.2-55
		c3.4-19.7-19.5-107.8-28.2-125.8"/>
	<path class="st0" d="M422.9,321.3c-27.4,7.7-27.7,11.8-53.4,15.3c-24.6,3.3-226.4,30.4-150.6,62.7c25.1,10.7,93.9,0,120.6-3.8
		c14.1-2,63.6-5,63.7-5.8c0.6,0.4-0.2-0.5,0.5-0.1"/>
	<path class="st0" d="M472.2,323.7c0,0,32,12.3,57.9,15.8c24.8,3.3,228.5,30.4,152,62.7c-25.3,10.7-94.8,0-121.7-3.8
		c-14.2-2-63.5-5.5-64.3-5.8c-0.7-0.3,0.2-0.5-0.5-0.1"/>
	<path class="st1" d="M450.8,362.2c-0.7,6.3-1.6,12.6-2.7,18.9c-0.5,4.5-0.9,8.9-1.1,13.4c1.2,18.7,1.8,37.5,2,56.2
		c0.6,3.6,1.1,7.3,1.6,10.9c0.6,6.7,1.2,13.4,1.7,20.1c-1.5,0.3-8.4,1.2-8.4,1.2l1.9,29.9c0,0-1.2,1-1.3,0
		c-0.7-8.8-3.2-47.5-5.2-56.2c-2.8-24-4.1-48.1-3.7-72.3c0.5-7.1,2.3-13.9,5.3-20.4c0.5-1.3,0.7-2.7,0.8-4.1
		c0.3-0.2,0.4-0.5,0.3-0.9c3,0.6,6,1.1,9.1,1.5C451.1,361.1,450.9,361.7,450.8,362.2z"/>
	<path class="st2" d="M448.3,363.5c-0.6,6.1-1.3,12.3-2.2,18.4c-0.4,4.4-0.7,8.7-0.9,13.1c1,18.3,1.5,36.5,1.7,54.8
		c0.5,3.5,0.9,7.1,1.3,10.7c0.5,6.5,1,13,1.4,19.6c-2.4,0.6-4.9,1-7.4,1.2c-0.5-8.6-1.6-17.2-3.2-25.6c-2.3-23.4-3.3-46.9-3.1-70.5
		c0.4-6.9,1.8-13.5,4.3-19.9c0.4-1.3,0.6-2.7,0.6-4c0.2-0.2,0.3-0.5,0.3-0.9c2.4,0.6,4.9,1.1,7.4,1.4
		C448.5,362.3,448.4,362.9,448.3,363.5z"/>
	<g>
		<path class="st3" d="M535.9,256.1c0,42.3-28.5,71.8-84.6,71.8S365,299.9,365,257.6c0-19.2-12.2-51.9,33.4-55.4
			c21.6-1.7,44.2,12.7,51.6,12.5c7.4-0.2,25.3-14.1,48.1-14.1C546.3,200.6,535.9,237.1,535.9,256.1z"/>
		<circle id="jawMid_2_" cx="450.2" cy="310.1" r="0.8"/>
		<circle id="rightJaw7_2_" cx="435.2" cy="306.9" r="0.8"/>
		<circle id="rightJaw6_2_" cx="425.2" cy="300.2" r="0.8"/>
		<circle id="rightJaw5_2_" cx="413.6" cy="287.7" r="0.8"/>
		<circle id="rightJaw4_2_" cx="406.8" cy="267.7" r="0.8"/>
		<circle id="rightJaw3_2_" cx="406" cy="246" r="0.8"/>
		<circle id="rightJaw2_2_" cx="406" cy="236.5" r="0.8"/>
		<circle id="rightJaw1_2_" cx="406.8" cy="224.8" r="0.8"/>
		<circle id="rightJaw0_3_" cx="409.3" cy="215.5" r="0.8"/>
		<circle id="topMid_3_" cx="450.4" cy="189.4" r="0.8"/>
		<circle id="leftTop0_3_" cx="470.1" cy="191.9" r="0.8"/>
		<circle id="leftTop1_3_" cx="482.7" cy="201.4" r="0.8"/>
		<circle id="leftJaw7_2_" cx="465" cy="307.3" r="0.8"/>
		<circle id="leftJaw6_2_" cx="475" cy="300.6" r="0.8"/>
		<circle id="leftJaw5_2_" cx="486.6" cy="288" r="0.8"/>
		<circle id="leftJaw4_2_" cx="493.4" cy="268" r="0.8"/>
		<circle id="leftJaw3_2_" cx="494.2" cy="246.4" r="0.8"/>
		<circle id="leftJaw2_2_" cx="494.2" cy="236.8" r="0.8"/>
		<circle id="leftJaw1_2_" cx="493.4" cy="225.1" r="0.8"/>
		<circle id="leftJaw0_3_" cx="490.9" cy="215.9" r="0.8"/>
		<circle id="rightTop0_3_" cx="430.5" cy="191.9" r="0.8"/>
		<circle id="rightTop1_3_" cx="417.9" cy="201.4" r="0.8"/>
	</g>
	<g>
		<circle class="st4" cx="398.5" cy="240" r="37.8"/>
		<circle class="st3" cx="398.5" cy="240" r="27"/>
		<circle id="rightEye0_2_" cx="420.4" cy="234.5" r="0.8"/>
		<circle id="rightEye1_2_" cx="425.6" cy="230.8" r="0.8"/>
		<circle id="rightEye5_2_" cx="425.6" cy="236.8" r="0.8"/>
		<circle id="rightEye2_2_" cx="431.9" cy="230.8" r="0.8"/>
		<circle id="rightEye3_2_" cx="437.1" cy="235" r="0.8"/>
		<circle id="rightEye4_2_" cx="431.9" cy="236" r="0.8"/>
		<ellipse id = "REyeOpen" class="st5" cx="412" cy="247.8" rx="6" ry="7.5"/>
	</g>
	<g>
		<circle class="st4" cx="501.7" cy="240" r="37.8"/>
		<circle class="st3" cx="501.7" cy="240" r="27"/>
		<ellipse id = "LEyeOpen" class="st5" cx="486.8" cy="247.8" rx="6" ry="7.5"/>
		<circle id="leftEye0_2_" cx="480" cy="234.5" r="0.8"/>
		<circle id="leftEye1_2_" cx="474.8" cy="230.8" r="0.8"/>
		<circle id="leftEye5_2_" cx="474.8" cy="236.8" r="0.8"/>
		<circle id="leftEye2_2_" cx="468.5" cy="230.8" r="0.8"/>
		<circle id="leftEye3_2_" cx="463.3" cy="235" r="0.8"/>
		<circle id="leftEye4_2_" cx="468.5" cy="236" r="0.8"/>
	</g>
	<g>
		<circle id="rightJaw0_2_" cx="409.3" cy="215.5" r="0.8"/>
		<circle id="topMid_2_" cx="450.4" cy="189.4" r="0.8"/>
		<circle id="leftTop0_2_" cx="470.1" cy="191.9" r="0.8"/>
		<circle id="leftTop1_2_" cx="482.7" cy="201.4" r="0.8"/>
		<circle id="leftJaw0_2_" cx="490.9" cy="215.9" r="0.8"/>
		<circle id="rightTop0_2_" cx="430.5" cy="191.9" r="0.8"/>
		<circle id="rightTop1_2_" cx="417.9" cy="201.4" r="0.8"/>
		<circle id="rightBrow1_2_" cx="418.2" cy="222.6" r="0.8"/>
		<circle id="rightBrow4_2_" cx="441.5" cy="225.6" r="0.8"/>
		<circle id="rightBrow3_2_" cx="431.7" cy="221.6" r="0.8"/>
		<circle id="rightBrow0_2_" cx="414.2" cy="226.3" r="0.8"/>
		<circle id="rightBrow2_2_" cx="424.4" cy="221.6" r="0.8"/>
		<circle id="leftBrow1_2_" cx="481.9" cy="223" r="0.8"/>
		<circle id="leftBrow4_2_" cx="458.3" cy="225.1" r="0.8"/>
		<circle id="leftBrow3_2_" cx="468.3" cy="221.9" r="0.8"/>
		<circle id="leftBrow0_2_" cx="485.9" cy="225.9" r="0.8"/>
		<circle id="leftBrow2_2_" cx="475.6" cy="221.5" r="0.8"/>
	</g>
	<g>
		<path class="st6" d="M483.2,275.8c1.5-12.1-11.2-31.7-33.9-31.7c-23.5,0-33.2,22.1-31.3,31.7c4.2,21.5,18.9,29.6,34.4,29.6
			C468.3,305.4,480.5,296.8,483.2,275.8z"/>
		<path class="st7" d="M419.7,270.7c5.7-1.2,19.6,1.2,32.3,1.2c10.9,0,21.3-2,29.4-0.5c-7.4,3.3-18.5,13.7-30.9,13.6
			C436.5,285,424.3,273,419.7,270.7z"/>
		<circle id="rightMouthCorner_3_" cx="422.9" cy="271.2" r="0.8"/>
		<path id="rightMiddleLip_3_" d="M429.6,275.7c0.4,0,0.8,0.4,0.8,0.8c0,0.4-0.4,0.8-0.8,0.8s-0.8-0.4-0.8-0.8
			C428.8,276.1,429.2,275.7,429.6,275.7z"/>
		<circle id="upperLipBottomMid_3_" cx="451.6" cy="273.6" r="0.8"/>
		<circle id="lowerLipTopMid_3_" cx="450.8" cy="283.9" r="0.8"/>
		<circle id="rightUpperLipBottom1_3_" cx="438.7" cy="272.8" r="0.8"/>
		<path id="rightLowerLipTop0_3_" d="M437.9,280.5c0.4,0,0.8,0.4,0.8,0.8s-0.4,0.8-0.8,0.8s-0.8-0.4-0.8-0.8
			S437.4,280.5,437.9,280.5z"/>
		<circle id="leftMouthCorner_3_" cx="478.5" cy="272" r="0.8"/>
		<path id="leftMiddleLip_3_" d="M470.4,276.5c0.4,0,0.8,0.4,0.8,0.8c0,0.4-0.4,0.8-0.8,0.8s-0.8-0.4-0.8-0.8
			C469.6,276.9,470,276.5,470.4,276.5z"/>
		<circle id="leftUpperLipBottom1_3_" cx="464.7" cy="272.8" r="0.8"/>
		<path id="leftLowerLipTop0_3_" d="M461.7,281.3c0.4,0,0.8,0.4,0.8,0.8s-0.4,0.8-0.8,0.8s-0.8-0.4-0.8-0.8S461.2,281.3,461.7,281.3
			z"/>
	</g>
	<path class="st8" d="M541.4,255.6c-0.9-0.4-3.9-0.7-5-0.6c0.1-1.6,1.9-5.5,1.9-5.5s0.8-4.8,0.9-7.5c0-0.8-0.1-2,0.3-2.6
		c7.1,0.4,13.9,2.9,19.9,6.7c1,0.7,1.8,1.5,2.4,2.6c0.4,4.3-0.4,8.4-2.3,12.3c-0.4,1.5-1.4,2.3-2.9,2.5c-0.3-0.9-0.8-1.6-1.5-2.3
		C551,258.3,546.4,256.4,541.4,255.6z"/>
	<path class="st8" d="M358,251.2c0.9-0.4,3.2-0.6,4.2-0.5c-0.1-1.6-0.9-4.1-1.2-5.5c-0.4-2-0.1-5.3-0.2-8c0-0.8,0.6-1.7,0.2-2.3
		c-6.9,0.4-14.9,3.2-20.7,6.9c-1,0.7-1.8,1.5-2.4,2.6c-0.4,4.3,0.4,8.4,2.2,12.3c0.4,1.5,1.4,2.3,2.9,2.5c0.3-0.9,0.8-1.6,1.5-2.3
		C348.6,253.8,353,252,358,251.2z"/>
	<path class="st9" d="M435.1,230.4c0.6-0.1,3.2-0.5,3.8-0.5c4.7,0.4,5.7,0.9,10.5,1c2.9-0.6,9.5-1.4,12.5-1.9c1.3,0,2.5,0.3,3.5,0.8
		c0.5,4.4-0.3,14.6-1,15.6c-0.8,0.2-8.7-2.9-14.4-2.4c-4.6,0.4-14.1,3.7-14.2,3.6C434.5,244.5,433.6,233.6,435.1,230.4z"/>
	<path class="st10" d="M528.5,530c-5.2,2-10.6,2.4-16.1,1.2c-6.3-1.3-12.6-2.9-18.7-4.9c-4-1.6-7.8-3.5-11.5-5.7
		c-1.1-0.9-2.2-1.9-3.2-2.8c-0.6-0.9-0.4-1.4,0.6-1.4c0.8,0.5,1.6,1,2.4,1.4c2.2-0.4,4.5-0.6,6.7-0.5c0.9,0,1.8,0,2.6-0.1
		c0.3-0.1,0.5-0.2,0.7-0.4c5.6-0.9,16.6-4.5,18-5.4c1,0,2.1,0,3.1-0.1c0.3-0.1,0.5-0.2,0.7-0.4c5.5-0.6,11-1,16.5-1.2
		c2.9,0,5.9,0.3,8.8,0.9c4.5,1.3,8.4,3.6,11.7,7c1.3,1.8,1.1,3.4-0.6,4.8c-5.6,2.5-11.3,3.1-17.3,1.8
		C532.5,523.5,530.7,529,528.5,530z"/>
	<path class="st10" d="M366.5,527.5c5.4,2,10.9,2.4,16.5,1.2c6.5-1.3,12.9-2.9,19.3-4.9c4.1-1.6,8-3.5,11.8-5.7
		c1.1-0.9,2.2-1.9,3.3-2.8c0.6-0.9,0.4-1.4-0.6-1.4c-0.8,0.5-1.6,1-2.5,1.4c-2.3-0.4-4.6-0.6-6.9-0.5c-0.9,0-1.8,0-2.7-0.1
		c-0.3-0.1-0.6-0.2-0.7-0.4c-5.7-0.9-17.1-4.5-18.5-5.4c-1.1,0-2.1,0-3.2-0.1c-0.3-0.1-0.6-0.2-0.7-0.4c-5.6-0.6-11.3-1-16.9-1.2
		c-3,0-6,0.3-9,0.9c-4.6,1.3-8.6,3.6-12,7c-1.3,1.8-1.1,3.4,0.6,4.8c5.7,2.5,11.7,3.1,17.8,1.8C362.5,521.1,364.3,526.6,366.5,527.5
		z"/>
	<path class="st11" d="M450.1,335.2c0.1,0.1,0.2,0.3,0.3,0.3c7.4-0.8,14.8-2.1,22.1-3.8c1.1-0.5,2.3-0.9,3.4-1.3
		c0.6,0.6,1.3,0.6,2,0c-0.2-0.1-0.3-0.1-0.5-0.2c0.6-0.2,1.2-0.4,1.8-0.5c0-0.2-0.1-0.5-0.1-0.7c0.9-0.3,1.8-0.6,2.6-0.9
		c0.2-0.1,0.3-0.3,0.4-0.5c0.8-0.4,1.7-0.7,2.6-0.9c0.6,0.6,3.5,3.7,4,3.6c0.1,0.5-0.1,0.9-0.5,1.2c-5.1,5.5-10.3,10.9-15.4,16.4
		c-3.7,3.4-7.8,6.2-12.2,8.4c-3.7,1.5-7.3,3.1-10.8,4.9c-5.2,1.8-10.3,1.5-15.4-0.8c-3.8-2.4-7.4-5.1-10.9-8.1
		c-3-2.8-6.2-5.6-9.4-8.3c-1.9-2-3.8-3.9-5.8-5.7c-2.3-3-4-6.3-5.1-9.9c0.2,0,0.5-0.1,0.7-0.1c1.4,2.8,2-1.7,2.5-2.3
		c4,2,8.1,3.8,12.2,5.6c2.9,0.9,5.9,1.7,8.9,2.3c4.5,0.3,9,0.7,13.4,1.4C444,335.2,447.1,335.1,450.1,335.2z"/>
	<path class="st12" d="M450.1,335.2c0.1,0.1,0.2,0.3,0.3,0.3c7.5-0.8,14.9-2.1,22.2-3.8c1.1-0.5,2.3-0.9,3.4-1.3
		c0.6,0.6,1.3,0.6,2,0c-0.2,0-0.3-0.1-0.5-0.2c0.6-0.2,1.2-0.4,1.8-0.5c0-0.2-0.1-0.5-0.1-0.7c0.9-0.3,1.8-0.6,2.7-0.9
		c0.2-0.1,0.3-0.3,0.4-0.4c0.9-0.4,1.7-0.7,2.7-0.9c0.6,0.6,0.9,1.3,1,2.2c-3.7,5.1-8.4,9-13.9,11.8c-4.8,2.2-9.7,4.1-14.6,6
		c-0.1,0.4,0,0.8,0.3,1.1c5.9-1.5,11.5-3.7,16.9-6.5c4.5-2.7,8.4-6.2,11.7-10.5c0.4-0.2,0.8-0.4,1.2-0.6c0.4,0.3,0.9,0.3,1.3,0.2
		c0.1,0.5-0.1,0.9-0.5,1.2c-5.2,5.4-10.3,10.8-15.5,16.3c-3.7,3.3-7.9,6.1-12.3,8.4c-3.7,1.5-7.3,3.1-10.9,4.9
		c-5.2,1.8-10.4,1.5-15.5-0.7c-3.8-2.4-7.5-5.1-10.9-8c-3.1-2.8-6.2-5.5-9.4-8.2c-1.9-2-3.8-3.8-5.8-5.6c-2.3-2.9-4-6.2-5.1-9.8
		c0.2,0,0.5-0.1,0.7-0.1c1.4,2.8,3.2,5.3,5.3,7.5c1.9,1.6,3.8,3.3,5.7,4.9c1.2,1,2.5,1.8,3.9,2.4c1,0.1,1.3-0.3,0.8-1.3
		c-6-3.4-10.8-8-14.6-13.9c0.4-0.6,0.9-1.2,1.4-1.8c4.1,1.9,8.2,3.8,12.3,5.5c3,0.9,5.9,1.6,8.9,2.3c4.5,0.3,9,0.7,13.5,1.4
		C444,335.2,447,335.1,450.1,335.2z"/>
	<path class="st13" d="M541.6,213.5c-2-3-3.7-5-6.2-7.7c-6.1-5.7-12.7-10.8-19.8-15.2c-2.8-1.6-5.7-2.9-8.8-4.1
		c-4.4-1.5-8.8-3.1-13.2-4.8c1.7-12.6,2.7-25.4,3.2-38.1c0-1.7-0.1-3.3-0.4-4.9c0.8,0,1.6,0.2,2.4,0.5c6.5,3,12.9,6,19.2,9.2
		c10.4,5.9,19.5,13.3,27.2,22.2c5,6.7,9.1,13.8,12.4,21.5c0.2,1.1,2.6,10.3,2.6,8.3c0.9,2.2,2.4,6.9,2.6,6.8c0,0.2,0.1,0.5,0.1,0.7
		c0.2,1.4,0.6,2.8,1.1,4.1c2.4,9.4-1.1,18.2-0.8,28c0,2.2-1.7,5.7-2.2,7.9c-3.2-3.2-19.9-8.4-19.9-8.4s-4.2-13.8-6.2-18.3
		c-0.8-1.9,9.6,1,9.6-1"/>
	<path class="st13" d="M408.6,137.7c-0.7,4.6-0.9,9.2-0.6,13.8c-0.1,0.1-0.3,0.2-0.3,0.3c-0.2,2.6,0,5.1,0.6,7.6
		c0.1,0.4,0.1,0.8,0.2,1.2c-0.2,2.4-0.3,4.8-0.1,7.2c0,0.2,0.1,0.5,0.1,0.7c-0.3,1-0.4,2-0.3,3c-0.2,2.6-0.1,5.3,0.2,7.9
		c0,0.1,0,0.2,0,0.2c-4.1,0.8-8.2,1.9-12.2,3.3c-4.4,2.2-8.8,4.4-13.2,6.6c-5.6,4-11.1,8.2-16.6,12.3c-2.4,2.2-4.6,4.7-6.6,7.4
		c-0.4,0.9-0.6,1.9-0.8,2.9c-1.1,1.5,0.1,3.3,0.1,3.3s9.8-0.5,8.4,1c-3,3-7.9,18.2-7.9,18.2l-20.9,8.4c0,0-7.3-23.6-1.4-40.1
		c4.2-11.8,10.3-22.6,18.3-32.4c4.9-5.9,10.4-11.3,16.5-16.1c5.3-3.5,10.5-7,15.8-10.5c5.8-2.9,11.7-5.2,17.9-7
		c0.9-0.3,1.8-0.5,2.7-0.6C408.5,136.9,408.4,137.3,408.6,137.7z"/>
	<path class="st14" d="M497.9,140.1c0.1,0.7,0.2,1.3,0.3,2c-0.2,4.1-0.5,8.3-0.9,12.5c0,0.8,0.1,1.5,0.2,2.3
		c-0.3,1.2-0.5,2.4-0.5,3.7c-0.8,6.7-1.6,13.4-2.3,20.2c-0.3,0.7-0.5,1.4-0.6,2.2c-2.3-0.8-4.6-1.4-7-1.8c-5.5-0.9-11-1.8-16.6-2.5
		c-7.8-0.3-15.7-0.6-23.6-0.9c-3.8,0.2-7.5,0.3-11.3,0.2c-5,0.6-10.1,1.1-15.2,1.4c-5.1,0.8-10.2,1.7-15.2,2.5c0-0.1,0-0.2,0-0.3
		c0.1-0.2,0.3-0.4,0.4-0.6c0.2,0,0.2-0.1,0.2-0.3c0.3,0,0.5-0.1,0.8-0.1c0-11.4-0.2-22.8-0.4-34.2c0.2-2.8,0.4-5.6,0.7-8.3
		c0-0.6-0.3-1.1-0.8-1.4c20.8-6.6,42-8.4,63.6-5.3c9.5,1.2,18.7,3.5,27.5,6.8C497.7,138.8,497.9,139.4,497.9,140.1z"/>
	<path class="st15" d="M495.4,139.9c0.1,0.6,0.2,1.3,0.3,1.9c-0.2,4-0.4,8-0.8,12.1c0,0.7,0.1,1.5,0.2,2.2c-0.3,1.1-0.5,2.3-0.5,3.6
		c-0.7,6.5-1.4,13-2.1,19.5c-0.3,0.7-0.4,1.4-0.6,2.1c-2.2-0.7-4.4-1.3-6.6-1.8c-5.2-0.9-10.4-1.8-15.6-2.5
		c-7.4-0.3-14.8-0.6-22.2-1c-3.5,0.2-7.1,0.3-10.6,0.2c-4.7,0.6-9.5,1-14.3,1.3c-4.8,0.8-9.6,1.6-14.3,2.4c0-0.1,0-0.2,0-0.2
		c0.1-0.2,0.3-0.4,0.4-0.6c0.2,0,0.2-0.1,0.2-0.3c0.2,0,0.5-0.1,0.7-0.1c-0.1-11-0.3-22-0.5-33.1c0.2-2.7,0.4-5.4,0.6-8.1
		c0-0.6-0.3-1.1-0.7-1.4c19.6-6.3,39.5-7.9,59.9-4.9c9,1.2,17.6,3.4,25.9,6.7C495.2,138.6,495.4,139.2,495.4,139.9z"/>
	<path class="st16" d="M428.8,154.7c0.3,0.5,0.5,1,0.8,1.6c-0.2-2.3-0.4-4.6-0.7-6.9c0.1-0.8,0.2-1.7,0.2-2.5c0.2,0,0.3,0.1,0.4,0.2
		c0-0.5-0.2-1-0.4-1.6c0.2-1.6,0.3-3.1,0.3-4.7c0.3-1.7,0.9-3.2,1.8-4.6c9.5-2.3,19-2.8,28.7-1.6c6.4,1,12.1,3.4,17,7.4
		c3,5.9,1.8,10.8-3.6,14.9c-2.7,1.6-5.7,2.8-8.8,3.4c-4,0.7-7.9,1.3-11.9,1.9c-0.2,0.1-0.4,0.3-0.6,0.5c-0.2,3.5-1.9,6.1-5,7.9
		c-3.3,0.8-6.6,1.1-10,1.1c-2.3-0.4-4-1.7-5-3.8c-0.6-1.1-1.2-2.3-1.6-3.5C429.8,161.2,429.2,157.9,428.8,154.7z"/>
	<path class="st17" d="M446.2,168.9c-2.3,0.4-4.6,0.7-7,0.9c-1.6,0.2-3-0.1-4.2-1.1c-1-1.2-1.8-2.5-2.5-3.8
		c-1.9-7.4-2.4-14.9-1.5-22.4c0.1-2.3,1.1-3.9,3.2-4.9c9.9-2.2,19.8-2.2,29.7,0c4.3,1.5,8.2,3.5,11.8,6.2c1.2,1.1,1.6,2.5,1.1,4.1
		c-1.1,5.6-4.5,9-10.2,10.2c-4.3,1.1-8.7,1.8-13.1,2.2c-1.3,0.1-2.3,0.6-3.2,1.5c-0.2,1.6-0.7,3.2-1.3,4.7
		C448.3,167.5,447.4,168.3,446.2,168.9z"/>
	<path class="st18" d="M453.9,141.7c2.7-0.7,5-0.2,7,1.6c1.5,1.9,1.3,3.7-0.6,5.3c-2,0.7-4,0.9-6,0.6c-2.6-0.6-3.7-2.2-3.2-4.9
		C451.8,143.2,452.7,142.3,453.9,141.7z"/>
	<path class="st19" d="M453.7,144c0.8-0.2,1.7-0.3,2.5-0.3c0.9,0.2,1.8,0.4,2.6,0.6c1.1,0.7,1.3,1.6,0.4,2.7
		c-1.8,0.6-3.7,0.6-5.6,0.1C452.7,146.1,452.8,145,453.7,144z"/>
	<path class="st20" d="M399.8,180.5c-14.9,5.4-28.9,14.8-39.3,28.5c-0.8,1.1-1.7,2.3-1.9,3.8c-0.3,2.5,1.6,4.7,3.6,5.3
		c2,0.7,4.2,0.1,6.3-0.4c30.2-7.5,61.2-13,91.9-10c26.9,2.6,53.2,11.6,80.2,13.3c1.7,0.1,3.7,0,4.6-1.7c1.1-2.1-0.6-4.7-2.1-6.4
		c-13.2-14.6-29.8-24.7-46.7-32.4C479.6,172.9,414.7,175.1,399.8,180.5z"/>
	<path class="st21" d="M342.8,257.2c4.8-2.7,10.5-5.3,16.2-6.3c0.5-0.1,0.9,0.5,1.3,0.8c0.4,0.2,0.5,0.7,0.6,1.1
		c1.8,7.9-1.1,15.9-2.1,23.8c-0.8,6.3-0.5,12.7,0.4,19c0.3,2,0.6,4,1.2,6c1.3,4.2,3.8,8.2,7.3,11.5c0.4,0.3,0.7,0.7,0.6,1.2
		c-0.1,0.3-0.3,0.5-0.5,0.6c-1.1,0.8-3,0.9-4.2,0.2c-0.9-0.5-1.4-1.3-1.9-2c-2.6-4-5-8-7.3-12.1c-1.9-3.5-3.8-7-4.8-10.7
		c-1-4.1-1-8.3-1.8-12.4c-0.6-3.2-1.7-6.4-2.5-9.6C344.6,264.6,344,261,342.8,257.2z"/>
	<path class="st21" d="M557.8,261.1c-4.9-2.7-10.4-4.6-16.2-5.6c-0.5-0.1-1.2-0.2-1.6,0.1c-0.4,0.2-0.6,0.7-0.6,1.1
		c-1.8,7.9,1.1,15.9,2.2,23.8c0.8,6.3,0.5,12.7-0.4,19c-0.3,2-0.6,4-1.2,6c-1.3,4.2-3.9,8.2-7.4,11.5c-0.4,0.3-0.8,0.7-0.7,1.2
		c0.1,0.3,0.3,0.5,0.5,0.6c1.2,0.8,3,0.9,4.3,0.2c0.9-0.5,1.4-1.3,1.9-2c2.6-4,5.1-8,7.4-12.1c2-3.5,3.9-7,4.8-10.7
		c1.1-4.1,1-8.3,1.8-12.4c0.6-3.2,1.7-6.4,2.6-9.6C556.1,268.6,556.6,265,557.8,261.1z"/>
</g>
<g id="skeleton_2_">
	<circle id="rightShoulder_1_" cx="398" cy="384.7" r="8.2"/>
	<circle id="rightElbow_1_" cx="316.3" cy="372.8" r="8.2"/>
	<circle id="rightWrist_1_" cx="219.5" cy="385.5" r="8.2"/>
	<circle id="rightHip_1_" cx="407.4" cy="550.8" r="8.2"/>
	<circle id="rightKnee_1_" cx="399.2" cy="711.6" r="8.2"/>
	<circle id="rightAnkle_1_" cx="399.2" cy="919.6" r="8.2"/>
	<circle id="leftShoulder_1_" cx="507" cy="384.8" r="8.2"/>
	<circle id="leftElbow_1_" cx="594.2" cy="377.3" r="8.2"/>
	<circle id="leftWrist_1_" cx="686.3" cy="384.5" r="8.2"/>
	<circle id="leftHip_1_" cx="496.6" cy="550.8" r="8.2"/>
	<circle id="leftKnee_1_" cx="509.2" cy="711.6" r="8.2"/>
	<circle id="leftAnkle_1_" cx="509.2" cy="919.6" r="8.2"/>
	<polygon class="st22" points="398,385 406.8,550.8 498.7,550.1 506.9,385 	"/>
	<polyline class="st22" points="396.9,385 315.9,371.7 219.3,385.6 	"/>
	<polyline class="st22" points="508.4,384.7 591.2,376.3 686.4,384.8 	"/>
	<polyline class="st22" points="404.6,550.8 399.1,711.9 399.1,919.9 	"/>
	<polyline class="st22" points="496.6,550 509.1,711.9 509.1,919.9 	"/>
	<circle id="rightEye0_1_" cx="420.4" cy="234.5" r="0.8"/>
	<circle id="rightBrow1_1_" cx="418.2" cy="222.6" r="0.8"/>
	<circle id="rightBrow4_1_" cx="441.5" cy="225.6" r="0.8"/>
	<circle id="nose1_1_" cx="449.4" cy="235.5" r="0.8"/>
	<circle id="rightBrow3_1_" cx="431.7" cy="221.6" r="0.8"/>
	<circle id="rightEye1_1_" cx="425.6" cy="230.8" r="0.8"/>
	<circle id="rightBrow0_1_" cx="414.2" cy="226.3" r="0.8"/>
	<circle id="rightBrow2_1_" cx="424.4" cy="221.6" r="0.8"/>
	<circle id="rightEye5_1_" cx="425.6" cy="236.8" r="0.8"/>
	<circle id="rightEye2_1_" cx="431.9" cy="230.8" r="0.8"/>
	<circle id="rightEye3_1_" cx="437.1" cy="235" r="0.8"/>
	<circle id="nose0_1_" cx="449.4" cy="229.7" r="0.8"/>
	<circle id="nose3_1_" cx="449.4" cy="248.1" r="0.8"/>
	<circle id="rightNose0_1_" cx="438.7" cy="252.6" r="0.8"/>
	<circle id="rightMouthCorner_1_" cx="432.7" cy="274.7" r="0.8"/>
	<circle id="rightNose1_1_" cx="443.9" cy="252.6" r="0.8"/>
	<circle id="rightUpperLipTop0_1_" cx="439.6" cy="271.3" r="0.8"/>
	<circle id="nose2_1_" cx="449.4" cy="241" r="0.8"/>
	<circle id="nose4_1_" cx="449.4" cy="253.4" r="0.8"/>
	<circle id="upperLipTopMid_1_" cx="450.2" cy="271.1" r="0.8"/>
	<circle id="rightUpperLipTop1_1_" cx="446.1" cy="270.2" r="0.8"/>
	<path id="rightMiddleLip_1_" d="M436.3,274.2c0.4,0,0.8,0.4,0.8,0.8c0,0.4-0.4,0.8-0.8,0.8s-0.8-0.4-0.8-0.8
		C435.5,274.6,435.9,274.2,436.3,274.2z"/>
	<circle id="lowerLipBottomMid_1_" cx="450.2" cy="284.3" r="0.8"/>
	<circle id="upperLipBottomMid_1_" cx="450.2" cy="274.7" r="0.8"/>
	<circle id="lowerLipTopMid_1_" cx="450.2" cy="277.8" r="0.8"/>
	<circle id="rightUpperLipBottom1_1_" cx="446.3" cy="274.2" r="0.8"/>
	<circle id="rightLowerLipTop0_1_" cx="446.3" cy="277.1" r="0.8"/>
	<circle id="rightLowerLipBottom1_1_" cx="446.1" cy="283.8" r="0.8"/>
	<circle id="rightLowerLipBottom0_1_" cx="439.1" cy="281" r="0.8"/>
	<circle id="rightEye4_1_" cx="431.9" cy="236" r="0.8"/>
	<circle id="jawMid_1_" cx="450.2" cy="310.1" r="0.8"/>
	<circle id="rightJaw7_1_" cx="435.2" cy="306.9" r="0.8"/>
	<circle id="rightJaw6_1_" cx="425.2" cy="300.2" r="0.8"/>
	<circle id="rightJaw5_1_" cx="413.6" cy="287.7" r="0.8"/>
	<circle id="rightJaw4_1_" cx="406.8" cy="267.7" r="0.8"/>
	<circle id="rightJaw3_1_" cx="406" cy="246" r="0.8"/>
	<circle id="rightJaw2_1_" cx="406" cy="236.5" r="0.8"/>
	<circle id="rightJaw1_1_" cx="406.8" cy="224.8" r="0.8"/>
	<circle id="rightJaw0_1_" cx="409.3" cy="215.5" r="0.8"/>
	<circle id="topMid_1_" cx="450.4" cy="189.4" r="0.8"/>
	<circle id="leftTop0_1_" cx="470.1" cy="191.9" r="0.8"/>
	<circle id="leftTop1_1_" cx="482.7" cy="201.4" r="0.8"/>
	<circle id="leftEye0_1_" cx="480" cy="234.5" r="0.8"/>
	<circle id="leftBrow1_1_" cx="481.9" cy="223" r="0.8"/>
	<circle id="leftBrow4_1_" cx="458.3" cy="225.1" r="0.8"/>
	<circle id="leftBrow3_1_" cx="468.3" cy="221.9" r="0.8"/>
	<circle id="leftEye1_1_" cx="474.8" cy="230.8" r="0.8"/>
	<circle id="leftBrow0_1_" cx="485.9" cy="225.9" r="0.8"/>
	<circle id="leftBrow2_1_" cx="475.6" cy="221.5" r="0.8"/>
	<circle id="leftEye5_1_" cx="474.8" cy="236.8" r="0.8"/>
	<circle id="leftEye2_1_" cx="468.5" cy="230.8" r="0.8"/>
	<circle id="leftEye3_1_" cx="463.3" cy="235" r="0.8"/>
	<circle id="leftNose0_1_" cx="459.8" cy="252.6" r="0.8"/>
	<circle id="leftMouthCorner_1_" cx="467.7" cy="274.7" r="0.8"/>
	<circle id="leftNose1_1_" cx="455" cy="252.6" r="0.8"/>
	<circle id="leftUpperLipTop0_1_" cx="460.8" cy="271.3" r="0.8"/>
	<circle id="leftUpperLipTop1_1_" cx="454.4" cy="270.2" r="0.8"/>
	<path id="leftMiddleLip_1_" d="M464.1,274.2c0.4,0,0.8,0.4,0.8,0.8c0,0.4-0.4,0.8-0.8,0.8s-0.8-0.4-0.8-0.8
		C463.3,274.6,463.7,274.2,464.1,274.2z"/>
	<circle id="leftUpperLipBottom1_1_" cx="454.2" cy="274.2" r="0.8"/>
	<circle id="leftLowerLipTop0_1_" cx="454.2" cy="277.1" r="0.8"/>
	<circle id="leftLowerLipBottom1_1_" cx="454.4" cy="283.8" r="0.8"/>
	<circle id="leftLowerLipBottom0_1_" cx="461.3" cy="281" r="0.8"/>
	<circle id="leftEye4_1_" cx="468.5" cy="236" r="0.8"/>
	<circle id="leftJaw7_1_" cx="465" cy="307.3" r="0.8"/>
	<circle id="leftJaw6_1_" cx="475" cy="300.6" r="0.8"/>
	<circle id="leftJaw5_1_" cx="486.6" cy="288" r="0.8"/>
	<circle id="leftJaw4_1_" cx="493.4" cy="268" r="0.8"/>
	<circle id="leftJaw3_1_" cx="494.2" cy="246.4" r="0.8"/>
	<circle id="leftJaw2_1_" cx="494.2" cy="236.8" r="0.8"/>
	<circle id="leftJaw1_1_" cx="493.4" cy="225.1" r="0.8"/>
	<circle id="leftJaw0_1_" cx="490.9" cy="215.9" r="0.8"/>
	<polyline class="st22" points="450.2,189.4 430.4,191.9 417.9,201.4 409.3,215.5 406.8,224.8 406,236.5 406,246 406.8,267.7 
		413.6,287.7 425.2,300.2 435.2,306.9 450.2,310.1 465,307.3 475,300.6 486.6,288 493.4,268 494.2,246.4 494.2,236.8 493.4,225.1 
		490.9,215.9 482.7,201.4 470.1,191.9 450.2,189.4 	"/>
	<polyline class="st22" points="414.2,226.3 418.2,222.6 424.4,221.6 431.7,221.6 441.5,225.6 	"/>
	<polygon class="st22" points="420.4,234.5 425.6,230.8 431.9,230.8 437.1,235 431.9,236 425.6,236.8 	"/>
	<polyline class="st22" points="438.7,252.6 443.9,252.6 449.4,253.4 449.4,248.1 449.4,241 449.4,235.5 449.4,229.7 	"/>
	<polyline class="st22" points="485.7,225.9 481.7,223 475.4,221.5 468.1,221.9 458.1,225.1 	"/>
	<polygon class="st22" points="479.8,234.5 474.5,230.8 468.2,230.8 463.1,235 468.2,236 474.5,236.8 	"/>
	<polyline class="st22" points="459.8,252.6 454.8,252.6 449.4,253.4 	"/>
	<polygon class="st22" points="432.7,274.7 439.6,271.3 446.1,270.2 450.2,271.1 454.4,270.2 460.8,271.3 467.7,274.7 461.3,281 
		454.2,283.8 450.2,284.3 446.1,283.8 439.1,281 	"/>
	<polyline class="st22" points="432.7,274.7 436.3,275 446.3,274.2 450.2,274.7 454.2,274.2 464.1,275 467.7,274.7 	"/>
	<polyline class="st22" points="432.7,274.7 436.3,275 446.3,277.1 450.2,277.9 454.2,277.1 464.1,275 467.7,274.7 	"/>
	<circle id="rightTop0_1_" cx="430.5" cy="191.9" r="0.8"/>
	<circle id="rightTop1_1_" cx="417.9" cy="201.4" r="0.8"/>
</g>
</svg>
