<?xml version="1.0" encoding="utf-8"?>
<!-- Generator: Adobe Adobe Illustrator 24.2.0, SVG Export Plug-In . SVG Version: 6.00 Build 0)  -->
<svg version="1.1" id="레이어_1" xmlns="http://www.w3.org/2000/svg" xmlns:xlink="http://www.w3.org/1999/xlink" x="0px"
    y="0px" width="907.3px" height="1035.3px" viewBox="0 0 907.3 1035.3" style="enable-background:new 0 0 907.3 1035.3;"
    xml:space="preserve">
<style type="text/css">
   .st0{fill:#60504B;}
   .st1{fill:#E5B5A3;}
   .st2{fill:#1F1F1F;}
   .st3{fill:#1D1626;}
   .st4{fill:#CE8282;}
   .st5{fill:#D19582;}
   .st6{fill:#D11336;}
   .st7{fill:#851B2E;}
   .st8{fill:#2C323A;stroke:#2C323A;stroke-width:2;stroke-miterlimit:10;}
   .st9{fill:#2C323A;}
   .st10{fill:#DF7977;}
   .st11{fill:none;stroke:#000000;stroke-miterlimit:10;}
</style>
<g id="illustration">
   <path class="st0" d="M491.7,923.2V970c0,48.8,54,50.3,54,4.5v-51.8L491.7,923.2z"/>
   <path class="st0" d="M392.8,923.2V970c0,48.8,54,50.3,54,4.5v-51.8L392.8,923.2z"/>
   <path class="st1" d="M392.8,597.7c0,56.7,0,127.2,0,194.9c0,47.7,0,94,0,133.1c42.1,0,23.6,0,54.1,0c0-40,0-84.6,0-130
      c0-64.8,14.9-129.1,14.9-165.6c4.3,0,15.2,0,19.2,0c0,35.3,9,121.7,9,162.6c0,33,1.6,95.8,1.6,133.5c33.5,0,11.4-0.5,53.9-0.5
      c0-36.7-0.1-78-0.1-131c0-65,4.5-141.1,4.5-197H392.8L392.8,597.7z"/>
   <path class="st1" d="M753.1,579.4l-8.3-18.6c0,0,24.4,4.2,33.3,5c4.6,0.4,10.8,5,3.8,13.9C775.9,584.5,753.1,579.4,753.1,579.4z"/>
   <path class="st1" d="M620,494.2C651,525.1,731.5,640.4,764.9,641c33.4,0.6,10.1-51.5-8.1-72.5c-17.4-20.1-101.3-99.2-101.3-99.2
      L620,494.2z"/>
   <path class="st1" d="M278.5,479.8c0,0-63.6,70.6-89.8,95.2c-27.4,25.6-10.7,64.4,25.2,45.7c40.3-20.9,78.1-67.5,110.4-120.2
      L278.5,479.8z"/>
   <path class="st1" d="M205.5,562.8l11.8-16.9c0,0-28.2,1-35.4,3.8c-7,2.8-11,12.2-0.2,14.9C191.2,566.9,205.5,562.8,205.5,562.8z"/>
   <path class="st2" d="M436.8,220.4c-3.8,8.1-15.8,4.9-17.4,13.7c-0.9,5-5.3,8.6-10.1,12c-4.8,3.4-10.1,6.7-12.7,10.9
      c-8.5,14.2-12.6,26.5-22.4,39.9c-3.1,4.3-2,8.9-2.9,10.7c-2.2,4.9,5.1,13.6,9.3,16.8c-0.4-4.6-0.1-8.1,3.2-11.3
      c3.3-3.2,3.1,2.7,7.1,0.7c-4.4,4.9-5.8,3-5.8,9.7c-0.1,10.6,13.5,13.3,22,19.4c19.1,13.7,43.4,23.4,66.6,20.9
      c14.5-1.6,35.5-8.7,48-16.4c13.9-8.6,18.1-1,21.6-16.4c0.8-3.3-0.1-11.1,0-14.2c0.5-9.7-3.7-24.9-6.3-33.9
      c-3.2-11.3-6.1-18.5-6.3-31.7c-0.2-9.4-19.4-15.8-23.9-24.3c-6.5-12.3-10.4-15.6-23.9-17.9c-13.5-2.2-11.1-1.1-24.6,1.2
      C449,212,440.9,211.8,436.8,220.4z"/>
   <path class="st3" d="M439.8,389.7L409.5,449c-28.7,3.8-70.9,56-70.9,56s-69.2-20.2-64.8-33.7c3.5-10.7,25.1-53.7,59.6-75.7
      S415.1,372.6,439.8,389.7z"/>
   <path class="st3" d="M481,386.9l23,66.3c21.1-18.1,107.8,45.5,107.8,45.5s55-28.6,48.2-40.5c-8.4-14.8-32.9-48.8-68.2-67.2
      C555.9,372.3,508.9,369.6,481,386.9z"/>
   <path class="st1" d="M472.9,453.7c46.2,1.7,53.2-37.3,52.9-62.6c-13.8-10.9-31.9-18.5-55.5-18.5c-23.6,0-42.3,7.5-57.1,18.4
      C412.7,406.3,416.2,451.7,472.9,453.7z"/>
   <path class="st3" d="M337,723.8l265.4,1.9c0,0,16-80-28.5-227c-6.2-20.3-29.7-92.9-48.2-107.5c0.3,25.3-12,26.6-58.2,26.6
      c-46.7,0-54.8-11.4-54.4-26.7c-35.8,72.5-38.3,62.3-54.2,120.3c-15.3,55.9-25.5,115.9-25.5,150.5"/>
   <ellipse class="st4" cx="407.1" cy="283" rx="16.2" ry="16.5"/>
   <ellipse class="st4" cx="527" cy="283" rx="16.2" ry="16.5"/>
   <path class="st2" d="M432.8,264.3c32.3-7.2,38.7-40,53.1-43.9c-1.3,2.4-0.4,9.5,2.8,17.6c5.6,14,18,31,37,31
      c0.8-3.7,8.7,0.8,8.5-2.6c-0.6-12.5-2.8-24.7-4-32.5c-1.3-8.3-10.8-16.8-16.8-22.9c-12.6-12.6-39.8-12.9-39.8-12.9
      s-23.1,1.8-41.3,7.6c-7.1,2.3-13.5,13.9-19.2,18.2c-7.6,5.7-5.3,10.9-9.8,20.9c-4,8.9,6.4,7.6,6.2,21.7
      C411.3,265.2,423.7,266.4,432.8,264.3z"/>
   <path class="st5" d="M487.9,343.1l-2.7-36.7l-28,3.9l-5.5,64C460.9,373.1,476.8,358.5,487.9,343.1z"/>
   <path class="st1" d="M481,225.9c-11.8,9.1-15.9,31.2-48.2,38.4c-9.1,2-16,2.1-21.3,1.2c0,0.6,0,1.2,0,1.9
      c-0.5,8.8-0.1,11.4,0.8,20.2c1.9,17.3,10,32.4,25.4,40.8c15.4,8.4,36.4,11.4,52.9,4.5c12.7-5.4,22.5-14.9,27.6-27.8
      c4.5-11.5,5.5-25.5,5.4-38.6c-5.3,0-16.6-11.5-19.4-25.7c-1-5.3,0.8,19.6,0.8,19.6s-11.2-8.1-12.2-17.2c-0.8-6.4,0.7-10.3,0-9.6
      c-5.1,5.1-4.9,24.5-6.1,20.9c0,0-13.2-14.1-8.6-22.9L481,225.9z"/>
   <path class="st1" d="M451.6,374.3l-1.1,13.3c0,0,0.8,11.8,19.5,14c18.7,2.2,20.9-17.7,20.9-17.7l-3-40.8
      C476.8,358.5,460.9,373.1,451.6,374.3z"/>
   <path class="st6" d="M416.6,244.7c3.3-6.4,10.5-22.9,26.2-30.8c11.7-5.9,12.5-4.7,25.7-6c9.7-0.9,22.1,1.5,27.7,5.4
      c23.6,16.5,26,35.6,25.4,35.6c-0.8,0-7.8-21.3-33.6-32.6c-11.1-4.9-34.2-2.1-42.6,2C434.1,223.8,419.5,245.2,416.6,244.7z"/>
   <path class="st6" d="M459.2,210.1c0,0-54.9-36.5-49.5-40.5s22.7-5.6,22.7-5.6s8.2-13.2,18.6-9.2c10.4,4.1,20.2,53.9,19.2,56.2
      C469.3,213.2,465.8,213.6,459.2,210.1z"/>
   <path class="st7" d="M464.1,201.4c0,0-23.8-35.5-17-39C453.9,158.9,464.1,201.4,464.1,201.4z"/>
   <path class="st6" d="M479.4,210.1c0,0,54.9-36.5,49.5-40.5c-5.4-4.1-22.7-5.6-22.7-5.6s-8.2-13.2-18.6-9.2s-20.2,53.9-19.2,56.2
      C469.3,213.2,472.8,213.6,479.4,210.1z"/>
   <path class="st7" d="M474.5,201.4c0,0,23.8-35.5,17-39S474.5,201.4,474.5,201.4z"/>
   <g>
      <path id="rightMiddleLip_2_" d="M456.9,302.2c0.4,0,0.8,0.4,0.8,0.8c0,0.4-0.4,0.8-0.8,0.8s-0.8-0.4-0.8-0.8
         C456.1,302.6,456.5,302.2,456.9,302.2z"/>
      <circle id="upperLipBottomMid_1_" cx="470.6" cy="302.7" r="0.8"/>
      <circle id="rightUpperLipBottom1_1_" cx="466.7" cy="302.2" r="0.8"/>
      <path id="leftMiddleLip_2_" d="M484.3,302.2c0.4,0,0.8,0.4,0.8,0.8c0,0.4-0.4,0.8-0.8,0.8s-0.8-0.4-0.8-0.8
         C483.5,302.6,483.9,302.2,484.3,302.2z"/>
      <circle id="leftUpperLipBottom1_1_" cx="474.5" cy="302.2" r="0.8"/>
      <path class="st8" d="M457.7,303c0,0,7.4-0.2,12.9-0.2s13.9-0.1,13.9-0.1s-6.1,4-13.9,4C462.7,306.7,457.7,303,457.7,303z"/>
      <circle id="lowerLipTopMid_2_" cx="470.6" cy="305.7" r="0.8"/>
      <circle id="rightLowerLipTop0_2_" cx="466.7" cy="305" r="0.8"/>
      <circle id="leftLowerLipTop0_2_" cx="474.5" cy="305" r="0.8"/>
   </g>
   <g>
      <path class="st8" d="M469.5,282.3c-1.2,0-4.7,1.7-5.9,5.6c-0.2,1.3,0.6,6.2,6.1,4.4c-0.1-1.1-4.8-1.2-4.6-4
         C465.4,286.4,467.2,286.4,469.5,282.3z"/>
      <circle id="nose1_1_" cx="469.8" cy="263.7" r="0.8"/>
      <circle id="nose0_1_" cx="469.8" cy="257.9" r="0.8"/>
      <circle id="nose3_1_" cx="469.8" cy="276.3" r="0.8"/>
      <circle id="rightNose0_1_" cx="459.1" cy="280.8" r="0.8"/>
      <circle id="rightNose1_1_" cx="464.3" cy="280.8" r="0.8"/>
      <circle id="nose2_1_" cx="469.8" cy="269.2" r="0.8"/>
      <circle id="nose4_1_" cx="469.8" cy="281.6" r="0.8"/>
      <circle id="leftNose0_1_" cx="480.2" cy="280.8" r="0.8"/>
      <circle id="leftNose1_1_" cx="475.4" cy="280.8" r="0.8"/>
   </g>
   <g>
      <ellipse id = "LEyeOpen" class="st9" cx="494.4" cy="275.1" rx="3.7" ry="6.2"/>
      <ellipse class="st10" cx="498.9" cy="292" rx="7.9" ry="6.6"/>
      <circle id="leftEye0_1_" cx="500.4" cy="262.7" r="0.8"/>
      <circle id="leftEye1_1_" cx="495.2" cy="259" r="0.8"/>
      <circle id="leftEye5_1_" cx="495.2" cy="265" r="0.8"/>
      <circle id="leftEye2_1_" cx="488.9" cy="259" r="0.8"/>
      <circle id="leftEye3_1_" cx="483.7" cy="263.2" r="0.8"/>
      <circle id="leftEye4_1_" cx="488.9" cy="264.2" r="0.8"/>
   </g>
   <g>
      <ellipse class="st10" cx="440.2" cy="292" rx="7.9" ry="6.6"/>
      <ellipse id = "REyeOpen" class="st9" cx="443.1" cy="275.1" rx="3.7" ry="6.2"/>
      <circle id="rightEye0_1_" cx="440.8" cy="262.7" r="0.8"/>
      <circle id="rightEye1_1_" cx="446" cy="259" r="0.8"/>
      <circle id="rightEye5_1_" cx="446" cy="265" r="0.8"/>
      <circle id="rightEye2_1_" cx="452.3" cy="259" r="0.8"/>
      <circle id="rightEye3_1_" cx="457.5" cy="263.2" r="0.8"/>
      <circle id="rightEye4_1_" cx="452.3" cy="264.2" r="0.8"/>
   </g>
   <g>
      <path class="st2" d="M426.8,266.5c3.3-6.4,21.6-11.5,29.3-8.3c2.4,1-0.5,3.5-1.3,3.5C451.5,261.4,438.5,259.9,426.8,266.5z"/>
      <circle id="leftBrow1_1_" cx="502.3" cy="251.2" r="0.8"/>
      <circle id="leftBrow4_1_" cx="478.7" cy="253.3" r="0.8"/>
      <circle id="leftBrow3_1_" cx="488.7" cy="250.1" r="0.8"/>
      <circle id="leftBrow0_1_" cx="506.3" cy="254.1" r="0.8"/>
      <circle id="leftBrow2_1_" cx="496" cy="249.7" r="0.8"/>
   </g>
   <g>
      <path class="st2" d="M513.5,266.4c-3.5-6.4-22.8-11.5-30.9-8.3c-2.5,1,0.5,3.5,1.4,3.5C487.4,261.3,501.1,259.7,513.5,266.4z"/>
      <circle id="rightBrow1_1_" cx="438.6" cy="250.8" r="0.8"/>
      <circle id="rightBrow4_1_" cx="461.9" cy="253.8" r="0.8"/>
      <circle id="rightBrow3_1_" cx="452.1" cy="249.8" r="0.8"/>
      <circle id="rightBrow0_1_" cx="434.6" cy="254.5" r="0.8"/>
      <circle id="rightBrow2_1_" cx="444.8" cy="249.8" r="0.8"/>
   </g>
</g>
<g id="skeleton_2_">
   <polygon class="st11" points="364.7,397.1 415,612.9 531.4,612.1 577.6,397.1    "/>
   <polyline class="st11" points="363.7,397.1 291.3,478.7 197.9,595.1    "/>
   <polyline class="st11" points="579.1,396.7 652.1,478.3 745.5,594.6    "/>
   <polyline class="st11" points="415,612.9 421.4,773.1 421.4,981.1    "/>
   <polyline class="st11" points="531.4,612.1 531.4,773.1 531.4,981.1    "/>
   <polyline class="st11" points="470.4,217.6 450.6,220.1 438.1,229.6 429.5,243.7 427,253 426.2,264.7 426.2,274.2 427,295.9 
      433.8,315.9 445.4,328.4 455.4,335.1 470.4,338.3 485.2,335.5 495.2,328.8 506.8,316.2 513.6,296.2 514.4,274.6 514.4,265 
      513.6,253.3 511.1,244.1 502.9,229.6 490.3,220.1 470.4,217.6    "/>
   <polyline class="st11" points="434.4,254.5 438.4,250.8 444.6,249.8 451.9,249.8 461.7,253.8    "/>
   <polygon class="st11" points="440.6,262.7 445.8,259 452.1,259 457.3,263.2 452.1,264.2 445.8,265    "/>
   <polyline class="st11" points="458.9,280.8 464.1,280.8 469.6,281.6 469.6,276.3 469.6,269.2 469.6,263.7 469.6,257.9    "/>
   <polyline class="st11" points="505.9,254.1 501.9,251.2 495.6,249.7 488.3,250.1 478.3,253.3    "/>
   <polygon class="st11" points="500,262.7 494.7,259 488.4,259 483.3,263.2 488.4,264.2 494.7,265    "/>
   <polyline class="st11" points="480,280.8 475,280.8 469.6,281.6    "/>
   <polygon class="st11" points="452.9,302.9 459.8,299.5 466.3,298.4 470.4,299.3 474.6,298.4 481,299.5 487.9,302.9 481.5,309.2 
      474.4,312 470.4,312.5 466.3,312 459.3,309.2    "/>
   <polyline class="st11" points="452.9,302.9 456.5,303.2 466.5,302.4 470.4,302.9 474.4,302.4 484.3,303.2 487.9,302.9    "/>
   <polyline class="st11" points="452.9,302.9 456.5,303.2 466.5,305.3 470.4,306.1 474.4,305.3 484.3,303.2 487.9,302.9    "/>
   <circle id="rightShoulder_1_" cx="364.8" cy="396.8" r="8.2"/>
   <circle id="rightElbow_1_" cx="291.3" cy="486.9" r="8.2"/>
   <circle id="rightWrist_1_" cx="197.9" cy="603.3" r="8.2"/>
   <circle id="rightHip_1_" cx="415.1" cy="612.6" r="8.2"/>
   <circle id="rightKnee_1_" cx="421.5" cy="772.8" r="8.2"/>
   <circle id="rightAnkle_1_" cx="421.5" cy="980.8" r="8.2"/>
   <circle id="leftElbow_1_" cx="652.1" cy="486.5" r="8.2"/>
   <circle id="leftWrist_1_" cx="745.5" cy="602.8" r="8.2"/>
   <circle id="leftHip_1_" cx="531.5" cy="611.8" r="8.2"/>
   <circle id="leftKnee_1_" cx="531.5" cy="772.8" r="8.2"/>
   <circle id="leftAnkle_1_" cx="531.5" cy="980.8" r="8.2"/>
   <circle id="rightEye0_2_" cx="440.6" cy="262.7" r="0.8"/>
   <circle id="rightBrow1_2_" cx="438.4" cy="250.8" r="0.8"/>
   <circle id="rightBrow4_2_" cx="461.7" cy="253.8" r="0.8"/>
   <circle id="nose1_2_" cx="469.6" cy="263.7" r="0.8"/>
   <circle id="rightBrow3_2_" cx="451.9" cy="249.8" r="0.8"/>
   <circle id="rightEye1_2_" cx="445.8" cy="259" r="0.8"/>
   <circle id="rightBrow0_2_" cx="434.4" cy="254.5" r="0.8"/>
   <circle id="rightBrow2_2_" cx="444.6" cy="249.8" r="0.8"/>
   <circle id="rightEye5_2_" cx="445.8" cy="265" r="0.8"/>
   <circle id="rightEye2_2_" cx="452.1" cy="259" r="0.8"/>
   <circle id="rightEye3_2_" cx="457.3" cy="263.2" r="0.8"/>
   <circle id="nose0_2_" cx="469.6" cy="257.9" r="0.8"/>
   <circle id="nose3_2_" cx="469.6" cy="276.3" r="0.8"/>
   <circle id="rightNose0_2_" cx="458.9" cy="280.8" r="0.8"/>
   <circle id="rightMouthCorner_1_" cx="452.9" cy="302.9" r="0.8"/>
   <circle id="rightNose1_2_" cx="464.1" cy="280.8" r="0.8"/>
   <circle id="rightUpperLipTop0_1_" cx="459.8" cy="299.5" r="0.8"/>
   <circle id="nose2_2_" cx="469.6" cy="269.2" r="0.8"/>
   <circle id="nose4_2_" cx="469.6" cy="281.6" r="0.8"/>
   <circle id="upperLipTopMid_1_" cx="470.4" cy="299.3" r="0.8"/>
   <circle id="rightUpperLipTop1_1_" cx="466.3" cy="298.4" r="0.8"/>
   <path id="rightMiddleLip_1_" d="M456.5,302.4c0.4,0,0.8,0.4,0.8,0.8s-0.4,0.8-0.8,0.8s-0.8-0.4-0.8-0.8
      C455.7,302.8,456.1,302.4,456.5,302.4z"/>
   <circle id="lowerLipBottomMid_1_" cx="470.4" cy="312.5" r="0.8"/>
   <circle id="upperLipBottomMid_2_" cx="470.4" cy="302.9" r="0.8"/>
   <circle id="lowerLipTopMid_1_" cx="470.4" cy="306" r="0.8"/>
   <circle id="rightUpperLipBottom1_2_" cx="466.5" cy="302.4" r="0.8"/>
   <circle id="rightLowerLipTop0_1_" cx="466.5" cy="305.3" r="0.8"/>
   <circle id="rightLowerLipBottom1_1_" cx="466.3" cy="312" r="0.8"/>
   <circle id="rightLowerLipBottom0_1_" cx="459.3" cy="309.2" r="0.8"/>
   <circle id="rightEye4_2_" cx="452.1" cy="264.2" r="0.8"/>
   <circle id="jawMid_1_" cx="470.4" cy="338.3" r="0.8"/>
   <circle id="rightJaw7_1_" cx="455.4" cy="335.1" r="0.8"/>
   <circle id="rightJaw6_1_" cx="445.4" cy="328.4" r="0.8"/>
   <circle id="rightJaw5_1_" cx="433.8" cy="315.9" r="0.8"/>
   <circle id="rightJaw4_1_" cx="427" cy="295.9" r="0.8"/>
   <circle id="rightJaw3_1_" cx="426.2" cy="274.2" r="0.8"/>
   <circle id="rightJaw2_1_" cx="426.2" cy="264.7" r="0.8"/>
   <circle id="rightJaw1_1_" cx="427" cy="253" r="0.8"/>
   <circle id="rightJaw0_1_" cx="429.5" cy="243.7" r="0.8"/>
   <circle id="topMid_1_" cx="470.6" cy="217.6" r="0.8"/>
   <circle id="leftTop0_1_" cx="490.3" cy="220.1" r="0.8"/>
   <circle id="leftTop1_1_" cx="502.9" cy="229.6" r="0.8"/>
   <circle id="leftEye0_2_" cx="500.2" cy="262.7" r="0.8"/>
   <circle id="leftBrow1_2_" cx="502.1" cy="251.2" r="0.8"/>
   <circle id="leftBrow4_2_" cx="478.5" cy="253.3" r="0.8"/>
   <circle id="leftBrow3_2_" cx="488.5" cy="250.1" r="0.8"/>
   <circle id="leftEye1_2_" cx="495" cy="259" r="0.8"/>
   <circle id="leftBrow0_2_" cx="506.1" cy="254.1" r="0.8"/>
   <circle id="leftBrow2_2_" cx="495.8" cy="249.7" r="0.8"/>
   <circle id="leftEye5_2_" cx="495" cy="265" r="0.8"/>
   <circle id="leftEye2_2_" cx="488.7" cy="259" r="0.8"/>
   <circle id="leftEye3_2_" cx="483.5" cy="263.2" r="0.8"/>
   <circle id="leftNose0_2_" cx="480" cy="280.8" r="0.8"/>
   <circle id="leftMouthCorner_1_" cx="487.9" cy="302.9" r="0.8"/>
   <circle id="leftNose1_2_" cx="475.2" cy="280.8" r="0.8"/>
   <circle id="leftUpperLipTop0_1_" cx="481" cy="299.5" r="0.8"/>
   <circle id="leftUpperLipTop1_1_" cx="474.6" cy="298.4" r="0.8"/>
   <path id="leftMiddleLip_1_" d="M484.3,302.4c0.4,0,0.8,0.4,0.8,0.8s-0.4,0.8-0.8,0.8s-0.8-0.4-0.8-0.8
      C483.5,302.8,483.9,302.4,484.3,302.4z"/>
   <circle id="leftUpperLipBottom1_2_" cx="474.4" cy="302.4" r="0.8"/>
   <circle id="leftLowerLipTop0_1_" cx="474.4" cy="305.3" r="0.8"/>
   <circle id="leftLowerLipBottom1_1_" cx="474.6" cy="312" r="0.8"/>
   <circle id="leftLowerLipBottom0_1_" cx="481.5" cy="309.2" r="0.8"/>
   <circle id="leftEye4_2_" cx="488.7" cy="264.2" r="0.8"/>
   <circle id="leftJaw7_1_" cx="485.2" cy="335.5" r="0.8"/>
   <circle id="leftJaw6_1_" cx="495.2" cy="328.8" r="0.8"/>
   <circle id="leftJaw5_1_" cx="506.8" cy="316.2" r="0.8"/>
   <circle id="leftJaw4_1_" cx="513.6" cy="296.2" r="0.8"/>
   <circle id="leftJaw3_1_" cx="514.4" cy="274.6" r="0.8"/>
   <circle id="leftJaw2_1_" cx="514.4" cy="265" r="0.8"/>
   <circle id="leftJaw1_1_" cx="513.6" cy="253.3" r="0.8"/>
   <circle id="leftJaw0_1_" cx="511.1" cy="244.1" r="0.8"/>
   <circle id="rightTop0_1_" cx="450.7" cy="220.1" r="0.8"/>
   <circle id="rightTop1_1_" cx="438.1" cy="229.6" r="0.8"/>
   <circle id="leftShoulder_1_" cx="577.7" cy="396.8" r="8.2"/>
</g>
</svg>