<?xml version="1.0" encoding="utf-8"?>
<!-- Generator: Adobe Adobe Illustrator 24.2.0, SVG Export Plug-In . SVG Version: 6.00 Build 0)  -->
<svg version="1.1" id="레이어_1" xmlns="http://www.w3.org/2000/svg" xmlns:xlink="http://www.w3.org/1999/xlink" x="0px"
	 y="0px" width="670.8px" height="1043.7px" viewBox="0 0 670.8 1043.7" style="enable-background:new 0 0 670.8 1043.7;"
	 xml:space="preserve">
<style type="text/css">
	.st0{fill:#60504B;}
	.st1{fill:#E5B5A3;}
	.st2{fill:#1F1F1F;}
	.st3{fill:#1D1626;}
	.st4{fill:#CE8282;}
	.st5{fill:#D19582;}
	.st6{fill:#D11336;}
	.st7{fill:#851B2E;}
	.st8{fill:#2C323A;stroke:#2C323A;stroke-width:2;stroke-miterlimit:10;}
	.st9{fill:#2C323A;}
	.st10{fill:#DF7977;}
	.st11{fill:none;stroke:#000000;stroke-miterlimit:10;}
</style>
<g id="illustration">
	<path class="st0" d="M366.5,857.5v46.8c0,48.8,54,50.3,54,4.5V857L366.5,857.5z"/>
	<path class="st0" d="M267.6,857.5v46.8c0,48.8,54,50.3,54,4.5V857L267.6,857.5z"/>
	<path class="st1" d="M267.6,532c0,56.7,0,127.2,0,194.9c0,47.7,0,94,0,133.1c42.1,0,23.6,0,54.1,0c0-40,0-84.6,0-130
		c0-64.8,14.9-129.1,14.9-165.6c4.3,0,15.2,0,19.2,0c0,35.3,9,121.7,9,162.6c0,33,1.6,95.8,1.6,133.5c33.5,0,11.4-0.5,53.9-0.5
		c0-36.7-0.1-78-0.1-131c0-65,4.5-141.1,4.5-197H267.6L267.6,532z"/>
	<path class="st1" d="M628,513.7l-8.3-18.6c0,0,24.4,4.2,33.3,5c4.6,0.4,10.8,5,3.8,13.9C650.8,518.8,628,513.7,628,513.7z"/>
	<path class="st1" d="M443.4,368.7c30.9,30.9,145.9,190.5,179.3,191.1s38.3-19.1,20.1-40.1c-17.4-20.1-156.3-185.6-191.4-188.4
		L443.4,368.7z"/>
	<path class="st1" d="M212.8,347.4c-39.7,44.8-123,137.2-149.3,161.8c-27.4,25.6-10.7,64.4,25.2,45.7C129,534,203.2,435,235.5,382.2
		L212.8,347.4z"/>
	<path class="st1" d="M80.4,497.1l11.8-16.9c0,0-28.2,1-35.4,3.8c-7,2.8-11,12.2-0.2,14.9C66.1,501.2,80.4,497.1,80.4,497.1z"/>
	<path class="st2" d="M311.7,154.7c-3.8,8.1-15.8,4.9-17.4,13.7c-0.9,5-5.3,8.6-10.1,12c-4.8,3.4-10.1,6.7-12.7,10.9
		c-8.5,14.2-12.6,26.5-22.4,39.9c-3.1,4.3-2,8.9-2.9,10.7c-2.2,4.9,5.1,13.6,9.3,16.8c-0.4-4.6-0.1-8.1,3.2-11.3
		c3.3-3.2,3.1,2.7,7.1,0.7c-4.4,4.9-5.8,3-5.8,9.7c-0.1,10.6,13.5,13.3,22,19.4c19.1,13.7,43.4,23.4,66.6,20.9
		c14.5-1.6,35.5-8.7,48-16.4c13.9-8.6,18.1-1,21.6-16.4c0.8-3.3-0.1-11.1,0-14.2c0.5-9.7-3.7-24.9-6.3-33.9
		c-3.2-11.3-6.1-18.5-6.3-31.7c-0.2-9.4-19.4-15.8-23.9-24.3c-6.5-12.3-10.4-15.6-23.9-17.9c-13.5-2.2-11.1-1.1-24.6,1.2
		C323.9,146.3,315.7,146,311.7,154.7z"/>
	<path class="st3" d="M317.7,324.6l-30.3,59.3c-28.7,3.8-51.9,22-51.9,22s-59.2-24.2-54.8-37.7C187.8,346.9,268.3,290.3,317.7,324.6
		z"/>
	<path class="st3" d="M345.1,328.1l33.8,59.3c21.1-18.1,76.8,18.5,76.8,18.5s49-41.6,42.2-53.5C480.8,322.5,400.3,293.8,345.1,328.1
		z"/>
	<path class="st1" d="M347.7,388c46.2,1.7,53.2-37.3,52.9-62.6c-13.8-10.9-31.9-18.5-55.5-18.5c-23.6,0-42.3,7.5-57.1,18.4
		C287.6,340.6,291.1,385.9,347.7,388z"/>
	<path class="st3" d="M211.8,658l265.4,1.9c0,0,16-80-28.5-227c-6.2-20.3-29.7-92.9-48.2-107.5c0.3,25.3-12,26.6-58.2,26.6
		c-46.7,0-54.8-11.4-54.4-26.7c-35.8,72.5-38.3,62.3-54.2,120.3c-15.3,55.9-25.5,115.9-25.5,150.5"/>
	<ellipse class="st4" cx="281.9" cy="217.3" rx="16.2" ry="16.5"/>
	<ellipse class="st4" cx="401.9" cy="217.3" rx="16.2" ry="16.5"/>
	<path class="st2" d="M307.7,198.6c32.3-7.2,38.7-40,53.1-43.9c-1.3,2.4-0.4,9.5,2.8,17.6c5.6,14,18,31,37,31
		c0.8-3.7,8.7,0.8,8.5-2.6c-0.6-12.5-2.8-24.7-4-32.5c-1.3-8.3-10.8-16.8-16.8-22.9c-12.6-12.6-39.8-12.9-39.8-12.9
		s-23.1,1.8-41.3,7.6c-7.1,2.3-13.5,13.9-19.2,18.2c-7.6,5.7-5.3,10.9-9.8,20.9c-4,8.9,6.4,7.6,6.2,21.7
		C286.2,199.4,298.6,200.6,307.7,198.6z"/>
	<path class="st5" d="M362.7,277.3l-2.7-36.7l-28,3.9l-4.6,53.7C336.6,297.1,351.7,292.7,362.7,277.3z"/>
	<path class="st1" d="M355.9,160.2c-11.8,9.1-15.9,31.2-48.2,38.4c-9.1,2-16,2.1-21.3,1.2c0,0.6,0,1.2,0,1.9
		c-0.5,8.8-0.1,11.4,0.8,20.2c1.9,17.3,10,32.4,25.4,40.8c15.4,8.4,36.4,11.4,52.9,4.5c12.7-5.4,22.5-14.9,27.6-27.8
		c4.5-11.5,5.5-25.5,5.4-38.6c-5.3,0-16.6-11.5-19.4-25.7c-1-5.3,0.8,19.6,0.8,19.6s-11.2-8.1-12.2-17.2c-0.8-6.4,0.7-10.3,0-9.6
		c-5.1,5.1-4.9,24.5-6.1,20.9c0,0-13.2-14.1-8.6-22.9L355.9,160.2z"/>
	<path class="st1" d="M327.4,298.2l-2,23.6c0,0,0.8,11.8,19.5,14c18.7,2.2,20.9-17.7,20.9-17.7l-3-40.8
		C351.7,292.7,336.6,297.1,327.4,298.2z"/>
	<path class="st6" d="M291.5,179c3.3-6.4,10.5-22.9,26.2-30.8c11.7-5.9,12.5-4.7,25.7-6c9.7-0.9,22.1,1.5,27.7,5.4
		c23.6,16.5,26,35.6,25.4,35.6c-0.8,0-7.8-21.3-33.6-32.6c-11.1-4.9-34.2-2.1-42.6,2C309,158.1,294.4,179.4,291.5,179z"/>
	<path class="st6" d="M334.1,144.3c0,0-54.9-36.5-49.5-40.5s22.7-5.6,22.7-5.6s8.2-13.2,18.6-9.2c10.4,4.1,20.2,53.9,19.2,56.2
		C344.2,147.5,340.7,147.8,334.1,144.3z"/>
	<path class="st7" d="M339,135.6c0,0-23.8-35.5-17-39C328.8,93.1,339,135.6,339,135.6z"/>
	<path class="st6" d="M354.3,144.3c0,0,54.9-36.5,49.5-40.5c-5.4-4.1-22.7-5.6-22.7-5.6s-8.2-13.2-18.6-9.2
		c-10.4,4.1-20.2,53.9-19.2,56.2C344.2,147.5,347.6,147.8,354.3,144.3z"/>
	<path class="st7" d="M349.4,135.6c0,0,23.8-35.5,17-39S349.4,135.6,349.4,135.6z"/>
	<g>
		<path id="rightMiddleLip_2_" d="M331.8,236.5c0.4,0,0.8,0.4,0.8,0.8s-0.4,0.8-0.8,0.8s-0.8-0.4-0.8-0.8S331.4,236.5,331.8,236.5z"
			/>
		<circle id="upperLipBottomMid_1_" cx="345.5" cy="237" r="0.8"/>
		<circle id="rightUpperLipBottom1_1_" cx="341.6" cy="236.5" r="0.8"/>
		<path id="leftMiddleLip_2_" d="M359.2,236.5c0.4,0,0.8,0.4,0.8,0.8s-0.4,0.8-0.8,0.8s-0.8-0.4-0.8-0.8S358.8,236.5,359.2,236.5z"
			/>
		<circle id="leftUpperLipBottom1_1_" cx="349.4" cy="236.5" r="0.8"/>
		<path class="st8" d="M332.6,237.3c0,0,7.4-0.2,12.9-0.2s13.9-0.1,13.9-0.1s-6.1,4-13.9,4C337.6,241,332.6,237.3,332.6,237.3z"/>
		<circle id="lowerLipTopMid_2_" cx="345.5" cy="240" r="0.8"/>
		<circle id="rightLowerLipTop0_2_" cx="341.6" cy="239.3" r="0.8"/>
		<circle id="leftLowerLipTop0_2_" cx="349.4" cy="239.3" r="0.8"/>
	</g>
	<g>
		<path class="st8" d="M344.4,216.6c-1.2,0-4.7,1.7-5.9,5.6c-0.2,1.3,0.6,6.2,6.1,4.4c-0.1-1.1-4.8-1.2-4.6-4
			C340.3,220.7,342.1,220.7,344.4,216.6z"/>
		<circle id="nose1_1_" cx="344.7" cy="198" r="0.8"/>
		<circle id="nose0_1_" cx="344.7" cy="192.2" r="0.8"/>
		<circle id="nose3_1_" cx="344.7" cy="210.6" r="0.8"/>
		<circle id="rightNose0_1_" cx="334" cy="215.1" r="0.8"/>
		<circle id="rightNose1_1_" cx="339.2" cy="215.1" r="0.8"/>
		<circle id="nose2_1_" cx="344.7" cy="203.5" r="0.8"/>
		<circle id="nose4_1_" cx="344.7" cy="215.9" r="0.8"/>
		<circle id="leftNose0_1_" cx="355.1" cy="215.1" r="0.8"/>
		<circle id="leftNose1_1_" cx="350.3" cy="215.1" r="0.8"/>
	</g>
	<g>
		<ellipse id = "LEyeOpen" class="st9" cx="369.3" cy="209.4" rx="3.7" ry="6.2"/>
		<ellipse class="st10" cx="373.8" cy="226.3" rx="7.9" ry="6.6"/>
		<circle id="leftEye0_1_" cx="375.3" cy="197" r="0.8"/>
		<circle id="leftEye1_1_" cx="370.1" cy="193.3" r="0.8"/>
		<circle id="leftEye5_1_" cx="370.1" cy="199.3" r="0.8"/>
		<circle id="leftEye2_1_" cx="363.8" cy="193.3" r="0.8"/>
		<circle id="leftEye3_1_" cx="358.6" cy="197.5" r="0.8"/>
		<circle id="leftEye4_1_" cx="363.8" cy="198.5" r="0.8"/>
	</g>
	<g>
		<ellipse class="st10" cx="315.1" cy="226.3" rx="7.9" ry="6.6"/>
		<ellipse id = "REyeOpen" class="st9" cx="318" cy="209.4" rx="3.7" ry="6.2"/>
		<circle id="rightEye0_1_" cx="315.7" cy="197" r="0.8"/>
		<circle id="rightEye1_1_" cx="320.9" cy="193.3" r="0.8"/>
		<circle id="rightEye5_1_" cx="320.9" cy="199.3" r="0.8"/>
		<circle id="rightEye2_1_" cx="327.2" cy="193.3" r="0.8"/>
		<circle id="rightEye3_1_" cx="332.4" cy="197.5" r="0.8"/>
		<circle id="rightEye4_1_" cx="327.2" cy="198.5" r="0.8"/>
	</g>
	<g>
		<path class="st2" d="M301.6,200.8c3.3-6.4,21.6-11.5,29.3-8.3c2.4,1-0.5,3.5-1.3,3.5C326.3,195.7,313.4,194.1,301.6,200.8z"/>
		<circle id="leftBrow1_1_" cx="377.2" cy="185.5" r="0.8"/>
		<circle id="leftBrow4_1_" cx="353.6" cy="187.6" r="0.8"/>
		<circle id="leftBrow3_1_" cx="363.6" cy="184.4" r="0.8"/>
		<circle id="leftBrow0_1_" cx="381.2" cy="188.4" r="0.8"/>
		<circle id="leftBrow2_1_" cx="370.9" cy="184" r="0.8"/>
	</g>
	<g>
		<path class="st2" d="M388.3,200.6c-3.5-6.4-22.8-11.5-30.9-8.3c-2.5,1,0.5,3.5,1.4,3.5C362.3,195.6,376,194,388.3,200.6z"/>
		<circle id="rightBrow1_1_" cx="313.5" cy="185.1" r="0.8"/>
		<circle id="rightBrow4_1_" cx="336.8" cy="188.1" r="0.8"/>
		<circle id="rightBrow3_1_" cx="327" cy="184.1" r="0.8"/>
		<circle id="rightBrow0_1_" cx="309.5" cy="188.8" r="0.8"/>
		<circle id="rightBrow2_1_" cx="319.7" cy="184.1" r="0.8"/>
	</g>
</g>
<g id="skeleton_1_">
	<polygon class="st11" points="239.6,331.3 289.9,547.1 406.3,546.3 452.5,331.3 	"/>
	<polyline class="st11" points="238.6,331.3 166.2,412.9 72.8,529.3 	"/>
	<polyline class="st11" points="454,330.9 527,412.5 620.4,528.8 	"/>
	<polyline class="st11" points="289.9,547.1 296.3,707.3 296.3,915.3 	"/>
	<polyline class="st11" points="406.3,546.3 406.3,707.3 406.3,915.3 	"/>
	<polyline class="st11" points="345.3,151.8 325.5,154.3 313,163.8 304.4,177.9 301.9,187.2 301.1,198.9 301.1,208.4 301.9,230.1 
		308.7,250.1 320.3,262.6 330.3,269.3 345.3,272.5 360.1,269.7 370.1,263 381.7,250.4 388.5,230.4 389.3,208.8 389.3,199.2 
		388.5,187.5 386,178.3 377.8,163.8 365.2,154.3 345.3,151.8 	"/>
	<polyline class="st11" points="309.3,188.7 313.3,185 319.5,184 326.8,184 336.6,188 	"/>
	<polygon class="st11" points="315.5,196.9 320.7,193.2 327,193.2 332.2,197.4 327,198.4 320.7,199.2 	"/>
	<polyline class="st11" points="333.8,215 339,215 344.5,215.8 344.5,210.5 344.5,203.4 344.5,197.9 344.5,192.1 	"/>
	<polyline class="st11" points="380.8,188.3 376.8,185.4 370.5,183.9 363.2,184.3 353.2,187.5 	"/>
	<polygon class="st11" points="374.9,196.9 369.6,193.2 363.3,193.2 358.2,197.4 363.3,198.4 369.6,199.2 	"/>
	<polyline class="st11" points="354.9,215 349.9,215 344.5,215.8 	"/>
	<polygon class="st11" points="327.8,237.1 334.7,233.7 341.2,232.6 345.3,233.5 349.5,232.6 355.9,233.7 362.8,237.1 356.4,243.4 
		349.3,246.2 345.3,246.7 341.2,246.2 334.2,243.4 	"/>
	<polyline class="st11" points="327.8,237.1 331.4,237.4 341.4,236.6 345.3,237.1 349.3,236.6 359.2,237.4 362.8,237.1 	"/>
	<polyline class="st11" points="327.8,237.1 331.4,237.4 341.4,239.5 345.3,240.3 349.3,239.5 359.2,237.4 362.8,237.1 	"/>
	<circle id="rightShoulder_2_" cx="239.7" cy="331" r="8.2"/>
	<circle id="rightElbow_2_" cx="166.2" cy="421.1" r="8.2"/>
	<circle id="rightWrist_2_" cx="72.8" cy="537.5" r="8.2"/>
	<circle id="rightHip_2_" cx="290" cy="546.8" r="8.2"/>
	<circle id="rightKnee_2_" cx="296.4" cy="707" r="8.2"/>
	<circle id="rightAnkle_2_" cx="296.4" cy="915" r="8.2"/>
	<circle id="leftElbow_2_" cx="527" cy="420.7" r="8.2"/>
	<circle id="leftWrist_2_" cx="620.4" cy="537" r="8.2"/>
	<circle id="leftHip_2_" cx="406.4" cy="546" r="8.2"/>
	<circle id="leftKnee_2_" cx="406.4" cy="707" r="8.2"/>
	<circle id="leftAnkle_2_" cx="406.4" cy="915" r="8.2"/>
	<circle id="rightEye0_3_" cx="315.5" cy="196.9" r="0.8"/>
	<circle id="rightBrow1_3_" cx="313.3" cy="185" r="0.8"/>
	<circle id="rightBrow4_3_" cx="336.6" cy="188" r="0.8"/>
	<circle id="nose1_3_" cx="344.5" cy="197.9" r="0.8"/>
	<circle id="rightBrow3_3_" cx="326.8" cy="184" r="0.8"/>
	<circle id="rightEye1_3_" cx="320.7" cy="193.2" r="0.8"/>
	<circle id="rightBrow0_3_" cx="309.3" cy="188.7" r="0.8"/>
	<circle id="rightBrow2_3_" cx="319.5" cy="184" r="0.8"/>
	<circle id="rightEye5_3_" cx="320.7" cy="199.2" r="0.8"/>
	<circle id="rightEye2_3_" cx="327" cy="193.2" r="0.8"/>
	<circle id="rightEye3_3_" cx="332.2" cy="197.4" r="0.8"/>
	<circle id="nose0_3_" cx="344.5" cy="192.1" r="0.8"/>
	<circle id="nose3_3_" cx="344.5" cy="210.5" r="0.8"/>
	<circle id="rightNose0_3_" cx="333.8" cy="215" r="0.8"/>
	<circle id="rightMouthCorner_2_" cx="327.8" cy="237.1" r="0.8"/>
	<circle id="rightNose1_3_" cx="339" cy="215" r="0.8"/>
	<circle id="rightUpperLipTop0_2_" cx="334.7" cy="233.7" r="0.8"/>
	<circle id="nose2_3_" cx="344.5" cy="203.4" r="0.8"/>
	<circle id="nose4_3_" cx="344.5" cy="215.8" r="0.8"/>
	<circle id="upperLipTopMid_2_" cx="345.3" cy="233.5" r="0.8"/>
	<circle id="rightUpperLipTop1_2_" cx="341.2" cy="232.6" r="0.8"/>
	<path id="rightMiddleLip_3_" d="M331.4,236.6c0.4,0,0.8,0.4,0.8,0.8s-0.4,0.8-0.8,0.8s-0.8-0.4-0.8-0.8
		C330.6,237,331,236.6,331.4,236.6z"/>
	<circle id="lowerLipBottomMid_2_" cx="345.3" cy="246.7" r="0.8"/>
	<circle id="upperLipBottomMid_3_" cx="345.3" cy="237.1" r="0.8"/>
	<circle id="lowerLipTopMid_3_" cx="345.3" cy="240.2" r="0.8"/>
	<circle id="rightUpperLipBottom1_3_" cx="341.4" cy="236.6" r="0.8"/>
	<circle id="rightLowerLipTop0_3_" cx="341.4" cy="239.5" r="0.8"/>
	<circle id="rightLowerLipBottom1_2_" cx="341.2" cy="246.2" r="0.8"/>
	<circle id="rightLowerLipBottom0_2_" cx="334.2" cy="243.4" r="0.8"/>
	<circle id="rightEye4_3_" cx="327" cy="198.4" r="0.8"/>
	<circle id="jawMid_2_" cx="345.3" cy="272.5" r="0.8"/>
	<circle id="rightJaw7_2_" cx="330.3" cy="269.3" r="0.8"/>
	<circle id="rightJaw6_2_" cx="320.3" cy="262.6" r="0.8"/>
	<circle id="rightJaw5_2_" cx="308.7" cy="250.1" r="0.8"/>
	<circle id="rightJaw4_2_" cx="301.9" cy="230.1" r="0.8"/>
	<circle id="rightJaw3_2_" cx="301.1" cy="208.4" r="0.8"/>
	<circle id="rightJaw2_2_" cx="301.1" cy="198.9" r="0.8"/>
	<circle id="rightJaw1_2_" cx="301.9" cy="187.2" r="0.8"/>
	<circle id="rightJaw0_2_" cx="304.4" cy="177.9" r="0.8"/>
	<circle id="topMid_2_" cx="345.5" cy="151.8" r="0.8"/>
	<circle id="leftTop0_2_" cx="365.2" cy="154.3" r="0.8"/>
	<circle id="leftTop1_2_" cx="377.8" cy="163.8" r="0.8"/>
	<circle id="leftEye0_3_" cx="375.1" cy="196.9" r="0.8"/>
	<circle id="leftBrow1_3_" cx="377" cy="185.4" r="0.8"/>
	<circle id="leftBrow4_3_" cx="353.4" cy="187.5" r="0.8"/>
	<circle id="leftBrow3_3_" cx="363.4" cy="184.3" r="0.8"/>
	<circle id="leftEye1_3_" cx="369.9" cy="193.2" r="0.8"/>
	<circle id="leftBrow0_3_" cx="381" cy="188.3" r="0.8"/>
	<circle id="leftBrow2_3_" cx="370.7" cy="183.9" r="0.8"/>
	<circle id="leftEye5_3_" cx="369.9" cy="199.2" r="0.8"/>
	<circle id="leftEye2_3_" cx="363.6" cy="193.2" r="0.8"/>
	<circle id="leftEye3_3_" cx="358.4" cy="197.4" r="0.8"/>
	<circle id="leftNose0_3_" cx="354.9" cy="215" r="0.8"/>
	<circle id="leftMouthCorner_2_" cx="362.8" cy="237.1" r="0.8"/>
	<circle id="leftNose1_3_" cx="350.1" cy="215" r="0.8"/>
	<circle id="leftUpperLipTop0_2_" cx="355.9" cy="233.7" r="0.8"/>
	<circle id="leftUpperLipTop1_2_" cx="349.5" cy="232.6" r="0.8"/>
	<path id="leftMiddleLip_3_" d="M359.2,236.6c0.4,0,0.8,0.4,0.8,0.8s-0.4,0.8-0.8,0.8s-0.8-0.4-0.8-0.8
		C358.4,237,358.8,236.6,359.2,236.6z"/>
	<circle id="leftUpperLipBottom1_3_" cx="349.3" cy="236.6" r="0.8"/>
	<circle id="leftLowerLipTop0_3_" cx="349.3" cy="239.5" r="0.8"/>
	<circle id="leftLowerLipBottom1_2_" cx="349.5" cy="246.2" r="0.8"/>
	<circle id="leftLowerLipBottom0_2_" cx="356.4" cy="243.4" r="0.8"/>
	<circle id="leftEye4_3_" cx="363.6" cy="198.4" r="0.8"/>
	<circle id="leftJaw7_2_" cx="360.1" cy="269.7" r="0.8"/>
	<circle id="leftJaw6_2_" cx="370.1" cy="263" r="0.8"/>
	<circle id="leftJaw5_2_" cx="381.7" cy="250.4" r="0.8"/>
	<circle id="leftJaw4_2_" cx="388.5" cy="230.4" r="0.8"/>
	<circle id="leftJaw3_2_" cx="389.3" cy="208.8" r="0.8"/>
	<circle id="leftJaw2_2_" cx="389.3" cy="199.2" r="0.8"/>
	<circle id="leftJaw1_2_" cx="388.5" cy="187.5" r="0.8"/>
	<circle id="leftJaw0_2_" cx="386" cy="178.3" r="0.8"/>
	<circle id="rightTop0_2_" cx="325.6" cy="154.3" r="0.8"/>
	<circle id="rightTop1_2_" cx="313" cy="163.8" r="0.8"/>
	<circle id="leftShoulder_2_" cx="452.6" cy="331" r="8.2"/>
</g>
</svg>
