<?xml version="1.0" encoding="utf-8"?>
<!-- Generator: Adobe Adobe Illustrator 24.2.0, SVG Export Plug-In . SVG Version: 6.00 Build 0)  -->
<svg version="1.1" id="레이어_1" xmlns="http://www.w3.org/2000/svg" xmlns:xlink="http://www.w3.org/1999/xlink" x="0px"
	 y="0px" width="1420px" height="1270px" viewBox="0 0 1420 1270" style="enable-background:new 0 0 1420 1270;"
	 xml:space="preserve">
<style type="text/css">
	.st0{fill:#60504B;}
	.st1{fill:#FFFFFF;}
	.st2{fill:#373C44;}
	.st3{fill:#F7E1AB;}
	.st4{fill:#E5B5A3;}
	.st5{fill:#282B2E;}
	.st6{fill:#FFF1D2;}
	.st7{fill:#F2DAAC;}
	.st8{fill:#F5C0AE;}
	.st9{fill:#D19582;}
	.st10{fill:#A10D17;}
	.st11{fill:#7A0F16;}
	.st12{fill:#CE8282;}
	.st13{fill:#EBB5A4;}
	.st14{fill:#F7E1A8;}
	.st15{fill:#3155B5;}
	.st16{fill:#DF7977;}
	.st17{fill:#2C323A;stroke:#2C323A;stroke-width:2;stroke-miterlimit:10;}
	.st18{fill:#2C323A;stroke:#EBB5A4;stroke-width:2;stroke-miterlimit:10;}
	.st19{fill:none;stroke:#000000;stroke-miterlimit:10;}
</style>
<g id="illustration">
	<path class="st0" d="M854.9,987.6v46.8c0,48.8,55.4,50.3,55.4,4.5v-51.8L854.9,987.6z"/>
	<path class="st0" d="M753.4,987.6v46.8c0,48.8,55.4,50.3,55.4,4.5v-51.8L753.4,987.6z"/>
	<rect x="867.3" y="1008.3" class="st1" width="30.6" height="4.4"/>
	<rect x="867.3" y="1016.7" class="st1" width="30.6" height="4.4"/>
	<rect x="867.3" y="1025.2" class="st1" width="30.6" height="4.4"/>
	<rect x="765.8" y="1008.3" class="st1" width="30.6" height="4.4"/>
	<rect x="765.8" y="1016.7" class="st1" width="30.6" height="4.4"/>
	<rect x="765.8" y="1025.2" class="st1" width="30.6" height="4.4"/>
	<path class="st2" d="M725.4,645.1c0,59.1,0,132.6,0,203.2c0,49.7,0,98,0,138.8c54.2,0,55.2,0,94.4,0c0-41.7-5.6-90.3-5.6-137.6
		c0-67.6,11.1-135.5,11.1-173.6c5.6,0-0.9-5.7,4.3-5.7c0,36.8,9.3,111.8,9.3,179.3c0,48.9-2.3,98.3-2.3,137.6c43.1,0,36.4,0,91.1,0
		c0-38.3,0-86.8,0-137.6c0-70.8,0-146.1,0-204.4H725.4L725.4,645.1z"/>
	<path class="st3" d="M769.6,271.9c0,0-13.4,44-5.2,48.4c8.1,4.4,9.5,0,9.5,0l11.1-44.7L769.6,271.9z"/>
	<path class="st3" d="M892.5,316.5c0,0,6.5-53.1-6.9-52.8C872.2,264,867.5,319.1,892.5,316.5z"/>
	<path class="st4" d="M557.4,600.1l-19.7,15.9c-25.4,27.5,2.1,72.5,37.3,46.5l19.9-21.3L557.4,600.1z"/>
	<path class="st2" d="M718.5,435.8c-31.3,6.8-181.2,166.6-181.2,166.6l55.3,55.2c48-29,154.6-187.1,187.1-163.3l16.8-75.6"/>
	<path class="st4" d="M1062.3,630c0,0,1.5,9.3,29.1,25.3c17.4,10.1,48.3,1.4,47.3-17c-1.8-34.8-23.5-42.3-23.5-42.3L1062.3,630z"/>
	<path class="st2" d="M847.1,413l31,81.3c33.4-19,182.4,146.8,182.4,146.8l70.7-44.4c0,0-156.6-154.4-184.2-164.5
		C918.2,421.6,898.8,418.4,847.1,413z"/>
	<path class="st2" d="M978.9,688.9c0,0-57.8-4.9-93.2-12c-35.4-7.1-55.2-22.7-55.2-22.7l0,0c-0.2,0.2-4.2,3.6-9.5,7.2
		c-3.1,2.1-6.7,4.3-10.3,6c-8.6,4-20.9,9.7-43.1,14.7c-26.4,5.9-91.6,0.6-91.6,0.6s36.7-124.1,34.3-215c-0.6-20.9,0.2-26.5,6.3-30.7
		c6.4-4.4,39.9-12,55.8-15.3c7-1.5,11.9-2.4,11.9-2.4s49.6-8,70.5-6c7.9,0.8,21.9,2.8,36.7,5.4c24.3,4.2,50.8,9.9,56.7,13.5
		C957.5,438,978.9,688.9,978.9,688.9z"/>
	<path class="st5" d="M830.4,654.2L830.4,654.2c-0.2,0.2-4.2,3.6-9.6,7.2l-2.4-112.6l7.9,8.4L830.4,654.2z"/>
	<path class="st5" d="M894.7,497.8l-18.3,6.7c0,0,1,3.1,6.7,16.1c-5.3,15.7-26.3,42.7-54.3,61.5c-21.7-11.4-49-47.4-49-47.4l6-21.2
		c0,0-7-2-16-4.3c-4.6-40.7,9.1-73.1,15.9-86.5c5.6-1.7,9.5-2.8,9.5-2.8s39.6-9.4,56.2-7c6.3,0.9,17.5,3.3,29.3,6.4
		c3.7,6.3,7.6,14.6,10.2,24.6C896.7,466.8,894.7,497.8,894.7,497.8z"/>
	<path class="st6" d="M865.4,427.9c-3.4-5.4-6.5-9.1-6.5-9.1L806,419l-4.7,1.6c-2.6,3-5,6.1-6.6,10.1c-2.2,5.4-3.6,11.2-4.6,17
		c-1,6-1.4,12.2-1.3,18.3c0.2,3.2,0.5,6.4,1.1,9.3c3.6,20.6,14,60.3,34.4,99.7c20-23.5,45.8-112.5,48.2-132.4
		C870.9,437.5,868.1,432.1,865.4,427.9z"/>
	<path class="st7" d="M858.9,418.7L806,419l-4.7,1.6c-1.7,2-3.4,4.1-4.8,6.4c0.6,13.6,5.2,33.9,26.1,43.5
		c24-7.4,37.7-19.6,42.3-40.3c0.2-0.8,0.3-1.6,0.5-2.4C862.1,422.5,858.9,418.7,858.9,418.7z"/>
	<path class="st8" d="M811.7,420.9c-2.8,3.7-2.2,8.9,1.3,11.9c11,9.2,40.4,8.9,38.3-10.9c-1.1-9.9-6.6-43.1-6.6-43.1
		c-0.1-0.6,0.3-0.3,0,0.2C836,390.8,818.4,412.2,811.7,420.9z"/>
	<path class="st9" d="M847.1,379l-1.7-25l-29.3,4l-7.3,66.9C818.5,423.8,839.6,388.7,847.1,379z"/>
	<path class="st10" d="M844.3,546.1c-6.1,11.7-13.4,25-18.7,31.4c-5.1-6.2-14.1-23.9-19.2-34.2c1.8-12.4,3.7-24.9,5.5-36.5
		c3.1-20,5.9-37.9,7.7-49.5c1-6.6,1.8-11.3,2-13.3c3.3-2.9,8.3,2,8.3,2s0.7,4.6,1.9,12.3c2,12.9,5.3,34.7,8.6,58.6
		C841.8,526.3,843.1,536.2,844.3,546.1z"/>
	<path class="st11" d="M844.3,546.1c-6.1,11.7-13.4,25-18.7,31.4c-5.1-6.2-14.1-23.9-19.2-34.2c1.8-12.4,3.7-24.9,5.5-36.5
		l12.1,47.6l16.5-37.6C841.8,526.3,843.1,536.2,844.3,546.1z"/>
	<path class="st11" d="M831.9,458.2c-2,1-4.2,1.6-6.4,1.3c-2.2-0.3-4.2-1.2-5.9-2.3c1-6.6,1.8-11.3,2-13.3c3.3-2.9,8.3,2,8.3,2
		S830.7,450.5,831.9,458.2z"/>
	<path class="st10" d="M814.9,439.6c0,5.7,3.8,11.8,9.5,12.9c5.7,1.2,10.3-4.9,12-10.8c1.7-5.9-3.8-12.3-9.5-12.5
		C821.3,429.1,814.9,434,814.9,439.6z"/>
	<path class="st2" d="M881.9,495.2l-16.8,6.9l1.4,3.8l5.8,15.7c0,0-28.8,45.3-46.8,55.9c0,0,30-78.7,34.7-110.1
		c4.7-31.3-5.7-54.4-5.7-54.4s7.3,1.2,12.7,9.4c5.3,8.2,11.7,23.1,14,42.3C883.6,483.9,881.9,495.2,881.9,495.2z"/>
	<polygon class="st5" points="866.6,505.9 852.4,506.9 865.2,502.2 	"/>
	<path class="st2" d="M825.6,577.5c-0.5-0.5-33.5-33.8-37.7-45.8c-0.1-7.5,0.6-13.7,1.2-17.7c0.5-3.1,0.9-4.9,0.9-4.9l-13.9-5
		c0,0-0.8-31.1,5.7-52.9c5.8-19.3,11.2-28,11.2-28s9.8-5.1,15.2-6.3c0,0-14.8,17.2-13.8,42.7C795.3,484.9,825.3,576.5,825.6,577.5z"
		/>
	<path class="st5" d="M803.7,514.3l-14.6-0.4c0.5-3.1,0.9-4.9,0.9-4.9L803.7,514.3z"/>
	<path class="st6" d="M809.8,415.8l-0.4,2.4c0,0,2.8,9.6,14.1,10c11.3,0.4,26.6-15.8,26.6-15.8s6.6,1.2,7.9,10.6
		c1.2,9.4,1,10.8-9.9,21.7c-4.9,4.9-13.1,8.7-13.1,8.7s-2.7-23-11-22.3c-8.4,0.6-11.6,20.5-11.6,20.5s-7.6-3.6-10.8-17
		C798.2,421.1,809.8,415.8,809.8,415.8z"/>
	<ellipse class="st12" cx="763.2" cy="330" rx="17" ry="16.5"/>
	<ellipse class="st12" cx="889.3" cy="330" rx="17" ry="16.5"/>
	<path class="st8" d="M768,314.3c-0.5,8.8-0.1,11.4,0.9,20.1c2,17.3,11.1,29.6,16.1,35.8c10.1,12.6,49.3,12.2,64.6,10.4
		c4.7-0.6,14.6-5.8,19.5-10.7c13-13,17.1-51.3,16.3-67.1c-3-58.5-52.1-57.6-52.1-57.6S767.7,240.3,768,314.3z"/>
	<path class="st13" d="M816.6,339.1c-5.9,2.2-15.8,18.4-15.8,22"/>
	<path class="st13" d="M858.4,361.1c0-7.6-19.5-26.4-19.5-22.9"/>
	<path class="st14" d="M881.4,281.1c0.5-4.5,0.7-9,0.8-13.5c0.1-6.7,0.1-13.9-1.9-20.4c-3.1-9.9-11.4-13.4-21.4-14.5
		c-9.4-1-19.1,0.4-28.2,2.8c-6.3,1.6-12.4,3.8-18.3,6.3c-26.6,11.2-48.5,10.7-50.7,3.3c-2.2,11.2,3.8,16.2,10.8,17.1
		c-11.3-0.4-15-7.1-15-7.1s-2,22.3,18.1,21.6c20.1-0.8,70.1-18.1,81.8-10.2C869.1,274.4,869,286.5,881.4,281.1z"/>
	<path class="st3" d="M881.3,266c-0.4-0.2,3.6-16.6,8-16.6s-4,12.4-4,12.4s6.2-7.6,9.5-5.7C898,258.1,886.6,268.4,881.3,266z"/>
	<g>
		<path class="st3" d="M869.1,299c-2.3-6.1-3.7-10.5-9.8-10.1c-3,0.2-10.6,2.5-10.6,2.5s-9.4,4.6-10.6,5.7c0.1,1.5,2.4,3.7,2.7,3.9
			c1.3,0.7,2.7-1.9,3.9-2.8c1.2-0.6,2.3-1.3,3.5-1.9c2.3-1.1,4.7-1.7,7-1.9c2.3-0.2,4.2-0.6,6.5,0.5
			C864,295.9,866.8,297.1,869.1,299z"/>
		<circle id="leftBrow1_1_" cx="859.3" cy="298.4" r="0.7"/>
		<circle id="leftBrow4_1_" cx="838.1" cy="300.3" r="0.7"/>
		<circle id="leftBrow3_1_" cx="847.1" cy="297.4" r="0.7"/>
		<circle id="leftBrow0_1_" cx="862.9" cy="301" r="0.7"/>
		<circle id="leftBrow2_1_" cx="853.7" cy="297" r="0.7"/>
	</g>
	<g>
		<path class="st3" d="M785,299c2.4-6.1,3.7-10.5,9.9-10.1c3,0.2,11.1,2,11.1,2s9.4,5.5,10.6,6.5c-0.1,1.5-3.4,4.1-3.7,4.3
			c-1.3,0.7-2.1-2.7-3.3-3.5c-1.2-0.6-2.4-1.3-3.5-1.9c-2.4-1.1-4.7-1.7-7.1-1.9c-2.4-0.2-4.2-0.6-6.6,0.5S787.4,297.1,785,299z"/>
		<circle id="rightBrow1_1_" cx="796.5" cy="298.2" r="0.8"/>
		<circle id="rightBrow4_1_" cx="819.8" cy="301.2" r="0.8"/>
		<circle id="rightBrow3_1_" cx="810" cy="297.2" r="0.8"/>
		<circle id="rightBrow0_1_" cx="792.5" cy="301.9" r="0.8"/>
		<circle id="rightBrow2_1_" cx="802.7" cy="297.2" r="0.8"/>
	</g>
	<g>
		<ellipse id = "LEyeOpen" class="st15" cx="856.7" cy="318.1" rx="3.7" ry="6.2"/>
		<ellipse class="st16" cx="861.2" cy="335" rx="7.9" ry="6.6"/>
		<circle id="leftEye0_1_" cx="858.3" cy="310.1" r="0.8"/>
		<circle id="leftEye1_1_" cx="853.1" cy="306.4" r="0.8"/>
		<circle id="leftEye5_1_" cx="853.1" cy="312.4" r="0.8"/>
		<circle id="leftEye2_1_" cx="846.8" cy="306.4" r="0.8"/>
		<circle id="leftEye3_1_" cx="841.6" cy="310.6" r="0.8"/>
		<circle id="leftEye4_1_" cx="846.8" cy="311.6" r="0.8"/>
	</g>
	<g>
		<ellipse class="st16" cx="795.6" cy="335" rx="7.9" ry="6.6"/>
		<ellipse id = "REyeOpen" class="st15" cx="798.5" cy="318.1" rx="3.7" ry="6.2"/>
		<circle id="rightEye0_1_" cx="798.7" cy="310.1" r="0.8"/>
		<circle id="rightEye1_1_" cx="803.9" cy="306.4" r="0.8"/>
		<circle id="rightEye5_1_" cx="803.9" cy="312.4" r="0.8"/>
		<circle id="rightEye2_1_" cx="810.2" cy="306.4" r="0.8"/>
		<circle id="rightEye3_1_" cx="815.4" cy="310.6" r="0.8"/>
		<circle id="rightEye4_1_" cx="810.2" cy="311.6" r="0.8"/>
	</g>
	<g>
		<path class="st17" d="M832.9,313.5c-2.3,0-9,3.9-11.3,12.7c-0.4,2.9,1.2,14.1,11.7,10c-0.2-2.5-9.2-2.7-8.8-9.1
			C825,322.8,828.5,322.8,832.9,313.5z"/>
		<circle id="nose1_1_" cx="827.7" cy="311.1" r="0.8"/>
		<circle id="nose0_1_" cx="827.7" cy="305.3" r="0.8"/>
		<circle id="nose3_1_" cx="827.7" cy="323.7" r="0.8"/>
		<circle id="rightNose0_1_" cx="817" cy="328.2" r="0.8"/>
		<circle id="rightNose1_1_" cx="822.2" cy="328.2" r="0.8"/>
		<circle id="nose2_1_" cx="827.7" cy="316.6" r="0.8"/>
		<circle id="nose4_1_" cx="827.7" cy="329" r="0.8"/>
		<circle id="leftNose0_1_" cx="838.1" cy="328.2" r="0.8"/>
		<circle id="leftNose1_1_" cx="833.3" cy="328.2" r="0.8"/>
	</g>
	<g>
		<path id="rightMiddleLip_2_" d="M814.8,349.6c0.4,0,0.8,0.4,0.8,0.8c0,0.4-0.4,0.8-0.8,0.8s-0.8-0.4-0.8-0.8
			C814,350,814.4,349.6,814.8,349.6z"/>
		<circle id="upperLipBottomMid_1_" cx="828.5" cy="350.1" r="0.8"/>
		<circle id="rightUpperLipBottom1_1_" cx="824.6" cy="349.6" r="0.8"/>
		<path id="leftMiddleLip_2_" d="M842.2,349.6c0.4,0,0.8,0.4,0.8,0.8c0,0.4-0.4,0.8-0.8,0.8s-0.8-0.4-0.8-0.8
			C841.4,350,841.8,349.6,842.2,349.6z"/>
		<circle id="leftUpperLipBottom1_1_" cx="832.4" cy="349.6" r="0.8"/>
		<circle id="lowerLipTopMid_2_" cx="828.5" cy="353.1" r="0.8"/>
		<circle id="rightLowerLipTop0_2_" cx="824.6" cy="352.4" r="0.8"/>
		<circle id="leftLowerLipTop0_2_" cx="832.4" cy="352.4" r="0.8"/>
		<path class="st18" d="M814,350.4c0.9-1.9,9.5-0.9,14.9-0.9c5.4,0,14.4-0.6,15.4,1.4c1,2.1-7.4,4.9-15,4.9
			C821.6,355.8,813,352.4,814,350.4z"/>
	</g>
</g>
<g id="skeleton_2_">
	<polygon class="st19" points="722.8,444.5 773.1,660.3 889.5,659.5 935.7,444.5 	"/>
	<polyline class="st19" points="721.8,444.5 649.4,526.1 556,642.5 	"/>
	<polyline class="st19" points="937.2,444.1 1010.2,525.7 1103.6,642 	"/>
	<polyline class="st19" points="773.1,660.3 779.5,820.5 779.5,1028.5 	"/>
	<polyline class="st19" points="889.5,659.5 889.5,820.5 889.5,1028.5 	"/>
	<polyline class="st19" points="828.5,265 808.7,267.5 796.2,277 787.6,291.1 785.1,300.4 784.3,312.1 784.3,321.6 785.1,343.3 
		791.9,363.3 803.5,375.8 813.5,382.5 828.5,385.7 843.3,382.9 853.3,376.2 864.9,363.6 871.7,343.6 872.5,322 872.5,312.4 
		871.7,300.7 869.2,291.5 861,277 848.4,267.5 828.5,265 	"/>
	<polyline class="st19" points="792.5,301.9 796.5,298.2 802.7,297.2 810,297.2 819.8,301.2 	"/>
	<polygon class="st19" points="798.7,310.1 803.9,306.4 810.2,306.4 815.4,310.6 810.2,311.6 803.9,312.4 	"/>
	<polyline class="st19" points="817,328.2 822.2,328.2 827.7,329 827.7,323.7 827.7,316.6 827.7,311.1 827.7,305.3 	"/>
	<polyline class="st19" points="864,301.5 860,298.6 853.7,297.1 846.4,297.5 836.4,300.7 	"/>
	<polygon class="st19" points="858.1,310.1 852.8,306.4 846.5,306.4 841.4,310.6 846.5,311.6 852.8,312.4 	"/>
	<polyline class="st19" points="838.1,328.2 833.1,328.2 827.7,329 	"/>
	<polygon class="st19" points="811,350.3 817.9,346.9 824.4,345.8 828.5,346.7 832.7,345.8 839.1,346.9 846,350.3 839.6,356.6 
		832.5,359.4 828.5,359.9 824.4,359.4 817.4,356.6 	"/>
	<polyline class="st19" points="811,350.3 814.6,350.6 824.6,349.8 828.5,350.3 832.5,349.8 842.4,350.6 846,350.3 	"/>
	<polyline class="st19" points="811,350.3 814.6,350.6 824.6,352.7 828.5,353.5 832.5,352.7 842.4,350.6 846,350.3 	"/>
	<circle id="rightShoulder_1_" cx="722.9" cy="444.2" r="8.2"/>
	<circle id="rightElbow_1_" cx="649.4" cy="534.3" r="8.2"/>
	<circle id="rightWrist_1_" cx="556" cy="650.7" r="8.2"/>
	<circle id="rightHip_1_" cx="773.2" cy="660" r="8.2"/>
	<circle id="rightKnee_1_" cx="779.6" cy="820.2" r="8.2"/>
	<circle id="rightAnkle_1_" cx="779.6" cy="1028.2" r="8.2"/>
	<circle id="leftElbow_1_" cx="1010.2" cy="533.9" r="8.2"/>
	<circle id="leftWrist_1_" cx="1103.6" cy="650.2" r="8.2"/>
	<circle id="leftHip_1_" cx="889.6" cy="659.2" r="8.2"/>
	<circle id="leftKnee_1_" cx="889.6" cy="820.2" r="8.2"/>
	<circle id="leftAnkle_1_" cx="889.6" cy="1028.2" r="8.2"/>
	<circle id="rightEye0_2_" cx="798.7" cy="310.1" r="0.8"/>
	<circle id="rightBrow1_2_" cx="796.5" cy="298.2" r="0.8"/>
	<circle id="rightBrow4_2_" cx="819.8" cy="301.2" r="0.8"/>
	<circle id="nose1_2_" cx="827.7" cy="311.1" r="0.8"/>
	<circle id="rightBrow3_2_" cx="810" cy="297.2" r="0.8"/>
	<circle id="rightEye1_2_" cx="803.9" cy="306.4" r="0.8"/>
	<circle id="rightBrow0_2_" cx="792.5" cy="301.9" r="0.8"/>
	<circle id="rightBrow2_2_" cx="802.7" cy="297.2" r="0.8"/>
	<circle id="rightEye5_2_" cx="803.9" cy="312.4" r="0.8"/>
	<circle id="rightEye2_2_" cx="810.2" cy="306.4" r="0.8"/>
	<circle id="rightEye3_2_" cx="815.4" cy="310.6" r="0.8"/>
	<circle id="nose0_2_" cx="827.7" cy="305.3" r="0.8"/>
	<circle id="nose3_2_" cx="827.7" cy="323.7" r="0.8"/>
	<circle id="rightNose0_2_" cx="817" cy="328.2" r="0.8"/>
	<circle id="rightMouthCorner_1_" cx="811" cy="350.3" r="0.8"/>
	<circle id="rightNose1_2_" cx="822.2" cy="328.2" r="0.8"/>
	<circle id="rightUpperLipTop0_1_" cx="817.9" cy="346.9" r="0.8"/>
	<circle id="nose2_2_" cx="827.7" cy="316.6" r="0.8"/>
	<circle id="nose4_2_" cx="827.7" cy="329" r="0.8"/>
	<circle id="upperLipTopMid_1_" cx="828.5" cy="346.7" r="0.8"/>
	<circle id="rightUpperLipTop1_1_" cx="824.4" cy="345.8" r="0.8"/>
	<path id="rightMiddleLip_1_" d="M814.6,349.8c0.4,0,0.8,0.4,0.8,0.8s-0.4,0.8-0.8,0.8s-0.8-0.4-0.8-0.8
		C813.8,350.2,814.2,349.8,814.6,349.8z"/>
	<circle id="lowerLipBottomMid_1_" cx="828.5" cy="359.9" r="0.8"/>
	<circle id="upperLipBottomMid_2_" cx="828.5" cy="350.3" r="0.8"/>
	<circle id="lowerLipTopMid_1_" cx="828.5" cy="353.4" r="0.8"/>
	<circle id="rightUpperLipBottom1_2_" cx="824.6" cy="349.8" r="0.8"/>
	<circle id="rightLowerLipTop0_1_" cx="824.6" cy="352.7" r="0.8"/>
	<circle id="rightLowerLipBottom1_1_" cx="824.4" cy="359.4" r="0.8"/>
	<circle id="rightLowerLipBottom0_1_" cx="817.4" cy="356.6" r="0.8"/>
	<circle id="rightEye4_2_" cx="810.2" cy="311.6" r="0.8"/>
	<circle id="jawMid_1_" cx="828.5" cy="385.7" r="0.8"/>
	<circle id="rightJaw7_1_" cx="813.5" cy="382.5" r="0.8"/>
	<circle id="rightJaw6_1_" cx="803.5" cy="375.8" r="0.8"/>
	<circle id="rightJaw5_1_" cx="791.9" cy="363.3" r="0.8"/>
	<circle id="rightJaw4_1_" cx="785.1" cy="343.3" r="0.8"/>
	<circle id="rightJaw3_1_" cx="784.3" cy="321.6" r="0.8"/>
	<circle id="rightJaw2_1_" cx="784.3" cy="312.1" r="0.8"/>
	<circle id="rightJaw1_1_" cx="785.1" cy="300.4" r="0.8"/>
	<circle id="rightJaw0_1_" cx="787.6" cy="291.1" r="0.8"/>
	<circle id="topMid_1_" cx="828.7" cy="265" r="0.8"/>
	<circle id="leftTop0_1_" cx="848.4" cy="267.5" r="0.8"/>
	<circle id="leftTop1_1_" cx="861" cy="277" r="0.8"/>
	<circle id="leftEye0_2_" cx="858.3" cy="310.1" r="0.8"/>
	<circle id="leftBrow1_2_" cx="860.2" cy="298.6" r="0.8"/>
	<circle id="leftBrow4_2_" cx="836.6" cy="300.7" r="0.8"/>
	<circle id="leftBrow3_2_" cx="846.6" cy="297.5" r="0.8"/>
	<circle id="leftEye1_2_" cx="853.1" cy="306.4" r="0.8"/>
	<circle id="leftBrow0_2_" cx="864.2" cy="301.5" r="0.8"/>
	<circle id="leftBrow2_2_" cx="853.9" cy="297.1" r="0.8"/>
	<circle id="leftEye5_2_" cx="853.1" cy="312.4" r="0.8"/>
	<circle id="leftEye2_2_" cx="846.8" cy="306.4" r="0.8"/>
	<circle id="leftEye3_2_" cx="841.6" cy="310.6" r="0.8"/>
	<circle id="leftNose0_2_" cx="838.1" cy="328.2" r="0.8"/>
	<circle id="leftMouthCorner_1_" cx="846" cy="350.3" r="0.8"/>
	<circle id="leftNose1_2_" cx="833.3" cy="328.2" r="0.8"/>
	<circle id="leftUpperLipTop0_1_" cx="839.1" cy="346.9" r="0.8"/>
	<circle id="leftUpperLipTop1_1_" cx="832.7" cy="345.8" r="0.8"/>
	<path id="leftMiddleLip_1_" d="M842.4,349.8c0.4,0,0.8,0.4,0.8,0.8s-0.4,0.8-0.8,0.8s-0.8-0.4-0.8-0.8
		C841.6,350.2,842,349.8,842.4,349.8z"/>
	<circle id="leftUpperLipBottom1_2_" cx="832.5" cy="349.8" r="0.8"/>
	<circle id="leftLowerLipTop0_1_" cx="832.5" cy="352.7" r="0.8"/>
	<circle id="leftLowerLipBottom1_1_" cx="832.7" cy="359.4" r="0.8"/>
	<circle id="leftLowerLipBottom0_1_" cx="839.6" cy="356.6" r="0.8"/>
	<circle id="leftEye4_2_" cx="846.8" cy="311.6" r="0.8"/>
	<circle id="leftJaw7_1_" cx="843.3" cy="382.9" r="0.8"/>
	<circle id="leftJaw6_1_" cx="853.3" cy="376.2" r="0.8"/>
	<circle id="leftJaw5_1_" cx="864.9" cy="363.6" r="0.8"/>
	<circle id="leftJaw4_1_" cx="871.7" cy="343.6" r="0.8"/>
	<circle id="leftJaw3_1_" cx="872.5" cy="322" r="0.8"/>
	<circle id="leftJaw2_1_" cx="872.5" cy="312.4" r="0.8"/>
	<circle id="leftJaw1_1_" cx="871.7" cy="300.7" r="0.8"/>
	<circle id="leftJaw0_1_" cx="869.2" cy="291.5" r="0.8"/>
	<circle id="rightTop0_1_" cx="808.8" cy="267.5" r="0.8"/>
	<circle id="rightTop1_1_" cx="796.2" cy="277" r="0.8"/>
	<circle id="leftShoulder_1_" cx="935.8" cy="444.2" r="8.2"/>
</g>
</svg>
